<?xml version="1.0" encoding="UTF-8" standalone="no"?>
<!DOCTYPE svg PUBLIC "-//W3C//DTD SVG 1.1//EN"
 "http://www.w3.org/Graphics/SVG/1.1/DTD/svg11.dtd">
<!-- Generated by graphviz version 2.47.0 (20210316.0004)
 -->
<!-- Title: dependencies Pages: 1 -->
<svg width="1215pt" height="284pt"
 viewBox="0.00 0.00 1215.00 284.00" xmlns="http://www.w3.org/2000/svg" xmlns:xlink="http://www.w3.org/1999/xlink">
<g id="graph0" class="graph" transform="scale(1 1) rotate(0) translate(4 280)">
<title>dependencies</title>
<polygon fill="white" stroke="transparent" points="-4,4 -4,-280 1211,-280 1211,4 -4,4"/>
<text text-anchor="start" x="582.51" y="-42.4" font-family="Times-12" font-weight="bold" font-size="14.00">Legend</text>
<polygon fill="#ffffb3" stroke="transparent" points="369.5,-10 369.5,-30 389.5,-30 389.5,-10 369.5,-10"/>
<text text-anchor="start" x="393.13" y="-15.4" font-family="Times-12" font-size="14.00"> &#160;Declarations</text>
<polygon fill="#8dd3c7" stroke="transparent" points="482.5,-10 482.5,-30 502.5,-30 502.5,-10 482.5,-10"/>
<text text-anchor="start" x="506.23" y="-15.4" font-family="Times-12" font-size="14.00"> &#160;Module</text>
<polygon fill="#80b1d3" stroke="transparent" points="568.5,-10 568.5,-30 588.5,-30 588.5,-10 568.5,-10"/>
<text text-anchor="start" x="592.28" y="-15.4" font-family="Times-12" font-size="14.00"> &#160;Bootstrap</text>
<polygon fill="#fdb462" stroke="transparent" points="665.5,-10 665.5,-30 685.5,-30 685.5,-10 665.5,-10"/>
<text text-anchor="start" x="689.17" y="-15.4" font-family="Times-12" font-size="14.00"> &#160;Providers</text>
<polygon fill="#fb8072" stroke="transparent" points="761.5,-10 761.5,-30 781.5,-30 781.5,-10 761.5,-10"/>
<text text-anchor="start" x="785.23" y="-15.4" font-family="Times-12" font-size="14.00"> &#160;Exports</text>
<g id="clust1" class="cluster">
<title>cluster_DatiPrevisionaliColtureModule</title>
<polygon fill="none" stroke="black" stroke-dasharray="1,5" points="8,-70 8,-268 1199,-268 1199,-70 8,-70"/>
</g>
<g id="clust2" class="cluster">
<title>cluster_DatiPrevisionaliColtureModule_declarations</title>
<polygon fill="none" stroke="black" points="699,-78 699,-130 1191,-130 1191,-78 699,-78"/>
</g>
<g id="clust5" class="cluster">
<title>cluster_DatiPrevisionaliColtureModule_imports</title>
<polygon fill="none" stroke="black" points="16,-78 16,-130 691,-130 691,-78 16,-78"/>
</g>
<g id="clust6" class="cluster">
<title>cluster_DatiPrevisionaliColtureModule_exports</title>
<polygon fill="none" stroke="black" points="344,-208 344,-260 578,-260 578,-208 344,-208"/>
</g>
<!-- DatiPrevisionailiColtureGridComponent -->
<g id="node1" class="node">
<title>DatiPrevisionailiColtureGridComponent</title>
<polygon fill="#ffffb3" stroke="black" points="1182.86,-122 939.14,-122 939.14,-86 1182.86,-86 1182.86,-122"/>
<text text-anchor="middle" x="1061" y="-99.8" font-family="Times,serif" font-size="14.00">DatiPrevisionailiColtureGridComponent</text>
</g>
<!-- DatiPrevisionaliColtureModule -->
<g id="node3" class="node">
<title>DatiPrevisionaliColtureModule</title>
<polygon fill="#8dd3c7" stroke="black" points="557.03,-187 554.03,-191 533.03,-191 530.03,-187 364.97,-187 364.97,-151 557.03,-151 557.03,-187"/>
<text text-anchor="middle" x="461" y="-164.8" font-family="Times,serif" font-size="14.00">DatiPrevisionaliColtureModule</text>
</g>
<!-- DatiPrevisionailiColtureGridComponent&#45;&gt;DatiPrevisionaliColtureModule -->
<g id="edge1" class="edge">
<title>DatiPrevisionailiColtureGridComponent&#45;&gt;DatiPrevisionaliColtureModule</title>
<path fill="none" stroke="black" d="M1061,-122.28C1061,-143.32 1061,-175 1061,-175 1061,-175 567.07,-175 567.07,-175"/>
<polygon fill="black" stroke="black" points="567.07,-171.5 557.07,-175 567.07,-178.5 567.07,-171.5"/>
</g>
<!-- DatiPrevisionaliColtureComponent -->
<g id="node2" class="node">
<title>DatiPrevisionaliColtureComponent</title>
<polygon fill="#ffffb3" stroke="black" points="921.31,-122 706.69,-122 706.69,-86 921.31,-86 921.31,-122"/>
<text text-anchor="middle" x="814" y="-99.8" font-family="Times,serif" font-size="14.00">DatiPrevisionaliColtureComponent</text>
</g>
<!-- DatiPrevisionaliColtureComponent&#45;&gt;DatiPrevisionaliColtureModule -->
<g id="edge2" class="edge">
<title>DatiPrevisionaliColtureComponent&#45;&gt;DatiPrevisionaliColtureModule</title>
<path fill="none" stroke="black" d="M814,-122.02C814,-139.37 814,-163 814,-163 814,-163 567.46,-163 567.46,-163"/>
<polygon fill="black" stroke="black" points="567.46,-159.5 557.46,-163 567.46,-166.5 567.46,-159.5"/>
</g>
<!-- DatiPrevisionaliColtureComponent  -->
<g id="node8" class="node">
<title>DatiPrevisionaliColtureComponent </title>
<polygon fill="#fb8072" stroke="black" points="569.81,-252 352.19,-252 352.19,-216 569.81,-216 569.81,-252"/>
<text text-anchor="middle" x="461" y="-229.8" font-family="Times,serif" font-size="14.00">DatiPrevisionaliColtureComponent </text>
</g>
<!-- DatiPrevisionaliColtureModule&#45;&gt;DatiPrevisionaliColtureComponent  -->
<g id="edge7" class="edge">
<title>DatiPrevisionaliColtureModule&#45;&gt;DatiPrevisionaliColtureComponent </title>
<path fill="none" stroke="black" stroke-dasharray="5,2" d="M461,-187.11C461,-187.11 461,-205.99 461,-205.99"/>
<polygon fill="black" stroke="black" points="457.5,-205.99 461,-215.99 464.5,-205.99 457.5,-205.99"/>
</g>
<!-- DatiPrevisionaliColtureRoutingModule -->
<g id="node4" class="node">
<title>DatiPrevisionaliColtureRoutingModule</title>
<polygon fill="#8dd3c7" stroke="black" points="682.64,-122 679.64,-126 658.64,-126 655.64,-122 445.36,-122 445.36,-86 682.64,-86 682.64,-122"/>
<text text-anchor="middle" x="564" y="-99.8" font-family="Times,serif" font-size="14.00">DatiPrevisionaliColtureRoutingModule</text>
</g>
<!-- DatiPrevisionaliColtureRoutingModule&#45;&gt;DatiPrevisionaliColtureModule -->
<g id="edge3" class="edge">
<title>DatiPrevisionaliColtureRoutingModule&#45;&gt;DatiPrevisionaliColtureModule</title>
<path fill="none" stroke="black" d="M501.22,-122.11C501.22,-122.11 501.22,-140.99 501.22,-140.99"/>
<polygon fill="black" stroke="black" points="497.72,-140.99 501.22,-150.99 504.72,-140.99 497.72,-140.99"/>
</g>
<!-- MenuAgendaModule -->
<g id="node5" class="node">
<title>MenuAgendaModule</title>
<polygon fill="#8dd3c7" stroke="black" points="426.75,-122 423.75,-126 402.75,-126 399.75,-122 291.25,-122 291.25,-86 426.75,-86 426.75,-122"/>
<text text-anchor="middle" x="359" y="-99.8" font-family="Times,serif" font-size="14.00">MenuAgendaModule</text>
</g>
<!-- MenuAgendaModule&#45;&gt;DatiPrevisionaliColtureModule -->
<g id="edge4" class="edge">
<title>MenuAgendaModule&#45;&gt;DatiPrevisionaliColtureModule</title>
<path fill="none" stroke="black" d="M395.81,-122.11C395.81,-122.11 395.81,-140.99 395.81,-140.99"/>
<polygon fill="black" stroke="black" points="392.31,-140.99 395.81,-150.99 399.31,-140.99 392.31,-140.99"/>
</g>
<!-- TranslocoRootModule -->
<g id="node6" class="node">
<title>TranslocoRootModule</title>
<polygon fill="#8dd3c7" stroke="black" points="273.25,-122 270.25,-126 249.25,-126 246.25,-122 130.75,-122 130.75,-86 273.25,-86 273.25,-122"/>
<text text-anchor="middle" x="202" y="-99.8" font-family="Times,serif" font-size="14.00">TranslocoRootModule</text>
</g>
<!-- TranslocoRootModule&#45;&gt;DatiPrevisionaliColtureModule -->
<g id="edge5" class="edge">
<title>TranslocoRootModule&#45;&gt;DatiPrevisionaliColtureModule</title>
<path fill="none" stroke="black" d="M202,-122.02C202,-139.37 202,-163 202,-163 202,-163 354.93,-163 354.93,-163"/>
<polygon fill="black" stroke="black" points="354.93,-166.5 364.93,-163 354.93,-159.5 354.93,-166.5"/>
</g>
<!-- UikitModule -->
<g id="node7" class="node">
<title>UikitModule</title>
<polygon fill="#8dd3c7" stroke="black" points="112.33,-122 109.33,-126 88.33,-126 85.33,-122 23.67,-122 23.67,-86 112.33,-86 112.33,-122"/>
<text text-anchor="middle" x="68" y="-99.8" font-family="Times,serif" font-size="14.00">UikitModule</text>
</g>
<!-- UikitModule&#45;&gt;DatiPrevisionaliColtureModule -->
<g id="edge6" class="edge">
<title>UikitModule&#45;&gt;DatiPrevisionaliColtureModule</title>
<path fill="none" stroke="black" d="M68,-122.28C68,-143.32 68,-175 68,-175 68,-175 354.86,-175 354.86,-175"/>
<polygon fill="black" stroke="black" points="354.86,-178.5 364.86,-175 354.86,-171.5 354.86,-178.5"/>
</g>
</g>
</svg>
