<?xml version="1.0" encoding="UTF-8" standalone="no"?>
<!DOCTYPE svg PUBLIC "-//W3C//DTD SVG 1.1//EN"
 "http://www.w3.org/Graphics/SVG/1.1/DTD/svg11.dtd">
<!-- Generated by graphviz version 2.47.0 (20210316.0004)
 -->
<!-- Title: dependencies Pages: 1 -->
<svg width="2146pt" height="349pt"
 viewBox="0.00 0.00 2146.00 349.00" xmlns="http://www.w3.org/2000/svg" xmlns:xlink="http://www.w3.org/1999/xlink">
<g id="graph0" class="graph" transform="scale(1 1) rotate(0) translate(4 345)">
<title>dependencies</title>
<polygon fill="white" stroke="transparent" points="-4,4 -4,-345 2142,-345 2142,4 -4,4"/>
<text text-anchor="start" x="1048.01" y="-42.4" font-family="Times-12" font-weight="bold" font-size="14.00">Legend</text>
<polygon fill="#ffffb3" stroke="transparent" points="835,-10 835,-30 855,-30 855,-10 835,-10"/>
<text text-anchor="start" x="858.63" y="-15.4" font-family="Times-12" font-size="14.00"> &#160;Declarations</text>
<polygon fill="#8dd3c7" stroke="transparent" points="948,-10 948,-30 968,-30 968,-10 948,-10"/>
<text text-anchor="start" x="971.73" y="-15.4" font-family="Times-12" font-size="14.00"> &#160;Module</text>
<polygon fill="#80b1d3" stroke="transparent" points="1034,-10 1034,-30 1054,-30 1054,-10 1034,-10"/>
<text text-anchor="start" x="1057.78" y="-15.4" font-family="Times-12" font-size="14.00"> &#160;Bootstrap</text>
<polygon fill="#fdb462" stroke="transparent" points="1131,-10 1131,-30 1151,-30 1151,-10 1131,-10"/>
<text text-anchor="start" x="1154.67" y="-15.4" font-family="Times-12" font-size="14.00"> &#160;Providers</text>
<polygon fill="#fb8072" stroke="transparent" points="1227,-10 1227,-30 1247,-30 1247,-10 1227,-10"/>
<text text-anchor="start" x="1250.73" y="-15.4" font-family="Times-12" font-size="14.00"> &#160;Exports</text>
<g id="clust1" class="cluster">
<title>cluster_ImpresaModule</title>
<polygon fill="none" stroke="black" stroke-dasharray="1,5" points="8,-70 8,-333 2130,-333 2130,-70 8,-70"/>
</g>
<g id="clust5" class="cluster">
<title>cluster_ImpresaModule_ImpresaEditComponent_providers</title>
<polygon fill="none" stroke="black" points="631,-78 631,-195 2122,-195 2122,-78 631,-78"/>
</g>
<g id="clust2" class="cluster">
<title>cluster_ImpresaModule_declarations</title>
<polygon fill="none" stroke="black" points="289,-143 289,-195 623,-195 623,-143 289,-143"/>
</g>
<g id="clust6" class="cluster">
<title>cluster_ImpresaModule_imports</title>
<polygon fill="none" stroke="black" points="16,-143 16,-195 281,-195 281,-143 16,-143"/>
</g>
<g id="clust7" class="cluster">
<title>cluster_ImpresaModule_exports</title>
<polygon fill="none" stroke="black" points="287,-273 287,-325 457,-325 457,-273 287,-273"/>
</g>
<!-- ContattiEditComponent -->
<g id="node1" class="node">
<title>ContattiEditComponent</title>
<polygon fill="#ffffb3" stroke="black" points="614.78,-187 465.22,-187 465.22,-151 614.78,-151 614.78,-187"/>
<text text-anchor="middle" x="540" y="-164.8" font-family="Times,serif" font-size="14.00">ContattiEditComponent</text>
</g>
<!-- ImpresaModule -->
<g id="node4" class="node">
<title>ImpresaModule</title>
<polygon fill="#8dd3c7" stroke="black" points="424.14,-252 421.14,-256 400.14,-256 397.14,-252 319.86,-252 319.86,-216 424.14,-216 424.14,-252"/>
<text text-anchor="middle" x="372" y="-229.8" font-family="Times,serif" font-size="14.00">ImpresaModule</text>
</g>
<!-- ContattiEditComponent&#45;&gt;ImpresaModule -->
<g id="edge1" class="edge">
<title>ContattiEditComponent&#45;&gt;ImpresaModule</title>
<path fill="none" stroke="black" d="M540,-187.02C540,-204.37 540,-228 540,-228 540,-228 434.24,-228 434.24,-228"/>
<polygon fill="black" stroke="black" points="434.24,-224.5 424.24,-228 434.24,-231.5 434.24,-224.5"/>
</g>
<!-- CooperativeComponent -->
<g id="node2" class="node">
<title>CooperativeComponent</title>
<polygon fill="#ffffb3" stroke="black" points="446.75,-187 297.25,-187 297.25,-151 446.75,-151 446.75,-187"/>
<text text-anchor="middle" x="372" y="-164.8" font-family="Times,serif" font-size="14.00">CooperativeComponent</text>
</g>
<!-- CooperativeComponent&#45;&gt;ImpresaModule -->
<g id="edge2" class="edge">
<title>CooperativeComponent&#45;&gt;ImpresaModule</title>
<path fill="none" stroke="black" d="M372,-187.11C372,-187.11 372,-205.99 372,-205.99"/>
<polygon fill="black" stroke="black" points="368.5,-205.99 372,-215.99 375.5,-205.99 368.5,-205.99"/>
</g>
<!-- ImpresaEditComponent -->
<g id="node3" class="node">
<title>ImpresaEditComponent</title>
<polygon fill="#ffffb3" stroke="black" points="1188.75,-187 1039.25,-187 1039.25,-151 1188.75,-151 1188.75,-187"/>
<text text-anchor="middle" x="1114" y="-164.8" font-family="Times,serif" font-size="14.00">ImpresaEditComponent</text>
</g>
<!-- ImpresaEditComponent&#45;&gt;ImpresaModule -->
<g id="edge3" class="edge">
<title>ImpresaEditComponent&#45;&gt;ImpresaModule</title>
<path fill="none" stroke="black" d="M1114,-187.28C1114,-208.32 1114,-240 1114,-240 1114,-240 434.18,-240 434.18,-240"/>
<polygon fill="black" stroke="black" points="434.18,-236.5 424.18,-240 434.18,-243.5 434.18,-236.5"/>
</g>
<!-- ImpresaEditComponent  -->
<g id="node12" class="node">
<title>ImpresaEditComponent </title>
<polygon fill="#fb8072" stroke="black" points="448.75,-317 295.25,-317 295.25,-281 448.75,-281 448.75,-317"/>
<text text-anchor="middle" x="372" y="-294.8" font-family="Times,serif" font-size="14.00">ImpresaEditComponent </text>
</g>
<!-- ImpresaModule&#45;&gt;ImpresaEditComponent  -->
<g id="edge11" class="edge">
<title>ImpresaModule&#45;&gt;ImpresaEditComponent </title>
<path fill="none" stroke="black" stroke-dasharray="5,2" d="M372,-252.11C372,-252.11 372,-270.99 372,-270.99"/>
<polygon fill="black" stroke="black" points="368.5,-270.99 372,-280.99 375.5,-270.99 368.5,-270.99"/>
</g>
<!-- PivaValidatorService -->
<g id="node5" class="node">
<title>PivaValidatorService</title>
<ellipse fill="#fdb462" stroke="black" cx="2020" cy="-104" rx="93.75" ry="18"/>
<text text-anchor="middle" x="2020" y="-99.8" font-family="Times,serif" font-size="14.00">PivaValidatorService</text>
</g>
<!-- PivaValidatorService&#45;&gt;ImpresaEditComponent -->
<g id="edge4" class="edge">
<title>PivaValidatorService&#45;&gt;ImpresaEditComponent</title>
<path fill="none" stroke="black" d="M2020,-122.28C2020,-143.32 2020,-175 2020,-175 2020,-175 1198.91,-175 1198.91,-175"/>
<polygon fill="black" stroke="black" points="1198.91,-171.5 1188.91,-175 1198.91,-178.5 1198.91,-171.5"/>
</g>
<!-- { provide: CODICI_TOKEN, useClass: ImpresaEditService } -->
<g id="node6" class="node">
<title>{ provide: CODICI_TOKEN, useClass: ImpresaEditService }</title>
<ellipse fill="#fdb462" stroke="black" cx="1658" cy="-104" rx="250.29" ry="18"/>
<text text-anchor="middle" x="1658" y="-99.8" font-family="Times,serif" font-size="14.00">{ provide: CODICI_TOKEN, useClass: ImpresaEditService }</text>
</g>
<!-- { provide: CODICI_TOKEN, useClass: ImpresaEditService }&#45;&gt;ImpresaEditComponent -->
<g id="edge5" class="edge">
<title>{ provide: CODICI_TOKEN, useClass: ImpresaEditService }&#45;&gt;ImpresaEditComponent</title>
<path fill="none" stroke="black" d="M1658,-122.02C1658,-139.37 1658,-163 1658,-163 1658,-163 1198.78,-163 1198.78,-163"/>
<polygon fill="black" stroke="black" points="1198.78,-159.5 1188.78,-163 1198.78,-166.5 1198.78,-159.5"/>
</g>
<!-- GiasMultiSelectTemplateService -->
<g id="node7" class="node">
<title>GiasMultiSelectTemplateService</title>
<ellipse fill="#fdb462" stroke="black" cx="1250" cy="-104" rx="139.43" ry="18"/>
<text text-anchor="middle" x="1250" y="-99.8" font-family="Times,serif" font-size="14.00">GiasMultiSelectTemplateService</text>
</g>
<!-- GiasMultiSelectTemplateService&#45;&gt;ImpresaEditComponent -->
<g id="edge6" class="edge">
<title>GiasMultiSelectTemplateService&#45;&gt;ImpresaEditComponent</title>
<path fill="none" stroke="black" d="M1149.83,-116.53C1149.83,-116.53 1149.83,-140.85 1149.83,-140.85"/>
<polygon fill="black" stroke="black" points="1146.33,-140.85 1149.83,-150.85 1153.33,-140.85 1146.33,-140.85"/>
</g>
<!-- CooperativeConfigService -->
<g id="node8" class="node">
<title>CooperativeConfigService</title>
<ellipse fill="#fdb462" stroke="black" cx="979" cy="-104" rx="114.02" ry="18"/>
<text text-anchor="middle" x="979" y="-99.8" font-family="Times,serif" font-size="14.00">CooperativeConfigService</text>
</g>
<!-- CooperativeConfigService&#45;&gt;ImpresaEditComponent -->
<g id="edge7" class="edge">
<title>CooperativeConfigService&#45;&gt;ImpresaEditComponent</title>
<path fill="none" stroke="black" d="M1066.07,-115.92C1066.07,-115.92 1066.07,-140.77 1066.07,-140.77"/>
<polygon fill="black" stroke="black" points="1062.57,-140.77 1066.07,-150.77 1069.57,-140.77 1062.57,-140.77"/>
</g>
<!-- ImpreseServiceProvider -->
<g id="node9" class="node">
<title>ImpreseServiceProvider</title>
<ellipse fill="#fdb462" stroke="black" cx="743" cy="-104" rx="104.19" ry="18"/>
<text text-anchor="middle" x="743" y="-99.8" font-family="Times,serif" font-size="14.00">ImpreseServiceProvider</text>
</g>
<!-- ImpreseServiceProvider&#45;&gt;ImpresaEditComponent -->
<g id="edge8" class="edge">
<title>ImpreseServiceProvider&#45;&gt;ImpresaEditComponent</title>
<path fill="none" stroke="black" d="M743,-122.11C743,-141.34 743,-169 743,-169 743,-169 1028.92,-169 1028.92,-169"/>
<polygon fill="black" stroke="black" points="1028.92,-172.5 1038.92,-169 1028.92,-165.5 1028.92,-172.5"/>
</g>
<!-- TranslocoRootModule -->
<g id="node10" class="node">
<title>TranslocoRootModule</title>
<polygon fill="#8dd3c7" stroke="black" points="273.25,-187 270.25,-191 249.25,-191 246.25,-187 130.75,-187 130.75,-151 273.25,-151 273.25,-187"/>
<text text-anchor="middle" x="202" y="-164.8" font-family="Times,serif" font-size="14.00">TranslocoRootModule</text>
</g>
<!-- TranslocoRootModule&#45;&gt;ImpresaModule -->
<g id="edge9" class="edge">
<title>TranslocoRootModule&#45;&gt;ImpresaModule</title>
<path fill="none" stroke="black" d="M202,-187.02C202,-204.37 202,-228 202,-228 202,-228 309.61,-228 309.61,-228"/>
<polygon fill="black" stroke="black" points="309.61,-231.5 319.61,-228 309.61,-224.5 309.61,-231.5"/>
</g>
<!-- UikitModule -->
<g id="node11" class="node">
<title>UikitModule</title>
<polygon fill="#8dd3c7" stroke="black" points="112.33,-187 109.33,-191 88.33,-191 85.33,-187 23.67,-187 23.67,-151 112.33,-151 112.33,-187"/>
<text text-anchor="middle" x="68" y="-164.8" font-family="Times,serif" font-size="14.00">UikitModule</text>
</g>
<!-- UikitModule&#45;&gt;ImpresaModule -->
<g id="edge10" class="edge">
<title>UikitModule&#45;&gt;ImpresaModule</title>
<path fill="none" stroke="black" d="M68,-187.28C68,-208.32 68,-240 68,-240 68,-240 309.74,-240 309.74,-240"/>
<polygon fill="black" stroke="black" points="309.74,-243.5 319.74,-240 309.74,-236.5 309.74,-243.5"/>
</g>
</g>
</svg>
