<?xml version="1.0" encoding="UTF-8" standalone="no"?>
<!DOCTYPE svg PUBLIC "-//W3C//DTD SVG 1.1//EN"
 "http://www.w3.org/Graphics/SVG/1.1/DTD/svg11.dtd">
<!-- Generated by graphviz version 2.47.0 (20210316.0004)
 -->
<!-- Title: dependencies Pages: 1 -->
<svg width="1299pt" height="349pt"
 viewBox="0.00 0.00 1299.00 349.00" xmlns="http://www.w3.org/2000/svg" xmlns:xlink="http://www.w3.org/1999/xlink">
<g id="graph0" class="graph" transform="scale(1 1) rotate(0) translate(4 345)">
<title>dependencies</title>
<polygon fill="white" stroke="transparent" points="-4,4 -4,-345 1295,-345 1295,4 -4,4"/>
<text text-anchor="start" x="624.51" y="-42.4" font-family="Times-12" font-weight="bold" font-size="14.00">Legend</text>
<polygon fill="#ffffb3" stroke="transparent" points="411.5,-10 411.5,-30 431.5,-30 431.5,-10 411.5,-10"/>
<text text-anchor="start" x="435.13" y="-15.4" font-family="Times-12" font-size="14.00"> &#160;Declarations</text>
<polygon fill="#8dd3c7" stroke="transparent" points="524.5,-10 524.5,-30 544.5,-30 544.5,-10 524.5,-10"/>
<text text-anchor="start" x="548.23" y="-15.4" font-family="Times-12" font-size="14.00"> &#160;Module</text>
<polygon fill="#80b1d3" stroke="transparent" points="610.5,-10 610.5,-30 630.5,-30 630.5,-10 610.5,-10"/>
<text text-anchor="start" x="634.28" y="-15.4" font-family="Times-12" font-size="14.00"> &#160;Bootstrap</text>
<polygon fill="#fdb462" stroke="transparent" points="707.5,-10 707.5,-30 727.5,-30 727.5,-10 707.5,-10"/>
<text text-anchor="start" x="731.17" y="-15.4" font-family="Times-12" font-size="14.00"> &#160;Providers</text>
<polygon fill="#fb8072" stroke="transparent" points="803.5,-10 803.5,-30 823.5,-30 823.5,-10 803.5,-10"/>
<text text-anchor="start" x="827.23" y="-15.4" font-family="Times-12" font-size="14.00"> &#160;Exports</text>
<g id="clust1" class="cluster">
<title>cluster_CentriModule</title>
<polygon fill="none" stroke="black" stroke-dasharray="1,5" points="8,-70 8,-333 1283,-333 1283,-70 8,-70"/>
</g>
<g id="clust9" class="cluster">
<title>cluster_CentriModule_imports</title>
<polygon fill="none" stroke="black" points="1010,-143 1010,-195 1275,-195 1275,-143 1010,-143"/>
</g>
<g id="clust2" class="cluster">
<title>cluster_CentriModule_declarations</title>
<polygon fill="none" stroke="black" points="16,-143 16,-195 1002,-195 1002,-143 16,-143"/>
</g>
<g id="clust5" class="cluster">
<title>cluster_CentriModule_CentriComponent_providers</title>
<polygon fill="none" stroke="black" points="277,-78 277,-130 891,-130 891,-78 277,-78"/>
</g>
<g id="clust10" class="cluster">
<title>cluster_CentriModule_exports</title>
<polygon fill="none" stroke="black" points="511,-273 511,-325 811,-325 811,-273 511,-273"/>
</g>
<!-- BiologicoComponent -->
<g id="node1" class="node">
<title>BiologicoComponent</title>
<polygon fill="#ffffb3" stroke="black" points="994.06,-187 857.94,-187 857.94,-151 994.06,-151 994.06,-187"/>
<text text-anchor="middle" x="926" y="-164.8" font-family="Times,serif" font-size="14.00">BiologicoComponent</text>
</g>
<!-- CentriModule -->
<g id="node7" class="node">
<title>CentriModule</title>
<polygon fill="#8dd3c7" stroke="black" points="714.04,-252 711.04,-256 690.04,-256 687.04,-252 619.96,-252 619.96,-216 714.04,-216 714.04,-252"/>
<text text-anchor="middle" x="667" y="-229.8" font-family="Times,serif" font-size="14.00">CentriModule</text>
</g>
<!-- BiologicoComponent&#45;&gt;CentriModule -->
<g id="edge1" class="edge">
<title>BiologicoComponent&#45;&gt;CentriModule</title>
<path fill="none" stroke="black" d="M926,-187.03C926,-203.4 926,-225 926,-225 926,-225 724.2,-225 724.2,-225"/>
<polygon fill="black" stroke="black" points="724.2,-221.5 714.2,-225 724.2,-228.5 724.2,-221.5"/>
</g>
<!-- CentriCodiciGridComponent -->
<g id="node2" class="node">
<title>CentriCodiciGridComponent</title>
<polygon fill="#ffffb3" stroke="black" points="839.82,-187 660.18,-187 660.18,-151 839.82,-151 839.82,-187"/>
<text text-anchor="middle" x="750" y="-164.8" font-family="Times,serif" font-size="14.00">CentriCodiciGridComponent</text>
</g>
<!-- CentriCodiciGridComponent&#45;&gt;CentriModule -->
<g id="edge2" class="edge">
<title>CentriCodiciGridComponent&#45;&gt;CentriModule</title>
<path fill="none" stroke="black" d="M687.31,-187.11C687.31,-187.11 687.31,-205.99 687.31,-205.99"/>
<polygon fill="black" stroke="black" points="683.81,-205.99 687.31,-215.99 690.81,-205.99 683.81,-205.99"/>
</g>
<!-- CentriComponent -->
<g id="node3" class="node">
<title>CentriComponent</title>
<polygon fill="#ffffb3" stroke="black" points="642.33,-187 525.67,-187 525.67,-151 642.33,-151 642.33,-187"/>
<text text-anchor="middle" x="584" y="-164.8" font-family="Times,serif" font-size="14.00">CentriComponent</text>
</g>
<!-- CentriComponent&#45;&gt;CentriModule -->
<g id="edge3" class="edge">
<title>CentriComponent&#45;&gt;CentriModule</title>
<path fill="none" stroke="black" d="M630.95,-187.11C630.95,-187.11 630.95,-205.99 630.95,-205.99"/>
<polygon fill="black" stroke="black" points="627.45,-205.99 630.95,-215.99 634.45,-205.99 627.45,-205.99"/>
</g>
<!-- CentroEditComponent -->
<g id="node4" class="node">
<title>CentroEditComponent</title>
<polygon fill="#ffffb3" stroke="black" points="507.27,-187 364.73,-187 364.73,-151 507.27,-151 507.27,-187"/>
<text text-anchor="middle" x="436" y="-164.8" font-family="Times,serif" font-size="14.00">CentroEditComponent</text>
</g>
<!-- CentroEditComponent&#45;&gt;CentriModule -->
<g id="edge5" class="edge">
<title>CentroEditComponent&#45;&gt;CentriModule</title>
<path fill="none" stroke="black" d="M436,-187.03C436,-203.4 436,-225 436,-225 436,-225 609.7,-225 609.7,-225"/>
<polygon fill="black" stroke="black" points="609.7,-228.5 619.7,-225 609.7,-221.5 609.7,-228.5"/>
</g>
<!-- DatiAccessoriComponent -->
<g id="node5" class="node">
<title>DatiAccessoriComponent</title>
<polygon fill="#ffffb3" stroke="black" points="346.13,-187 185.87,-187 185.87,-151 346.13,-151 346.13,-187"/>
<text text-anchor="middle" x="266" y="-164.8" font-family="Times,serif" font-size="14.00">DatiAccessoriComponent</text>
</g>
<!-- DatiAccessoriComponent&#45;&gt;CentriModule -->
<g id="edge6" class="edge">
<title>DatiAccessoriComponent&#45;&gt;CentriModule</title>
<path fill="none" stroke="black" d="M266,-187.11C266,-206.34 266,-234 266,-234 266,-234 609.82,-234 609.82,-234"/>
<polygon fill="black" stroke="black" points="609.82,-237.5 619.82,-234 609.82,-230.5 609.82,-237.5"/>
</g>
<!-- DatiCentroComponent -->
<g id="node6" class="node">
<title>DatiCentroComponent</title>
<polygon fill="#ffffb3" stroke="black" points="167.54,-187 24.46,-187 24.46,-151 167.54,-151 167.54,-187"/>
<text text-anchor="middle" x="96" y="-164.8" font-family="Times,serif" font-size="14.00">DatiCentroComponent</text>
</g>
<!-- DatiCentroComponent&#45;&gt;CentriModule -->
<g id="edge7" class="edge">
<title>DatiCentroComponent&#45;&gt;CentriModule</title>
<path fill="none" stroke="black" d="M96,-187.29C96,-209.21 96,-243 96,-243 96,-243 609.79,-243 609.79,-243"/>
<polygon fill="black" stroke="black" points="609.79,-246.5 619.79,-243 609.79,-239.5 609.79,-246.5"/>
</g>
<!-- CentriComponent  -->
<g id="node11" class="node">
<title>CentriComponent </title>
<polygon fill="#fb8072" stroke="black" points="802.83,-317 683.17,-317 683.17,-281 802.83,-281 802.83,-317"/>
<text text-anchor="middle" x="743" y="-294.8" font-family="Times,serif" font-size="14.00">CentriComponent </text>
</g>
<!-- CentriModule&#45;&gt;CentriComponent  -->
<g id="edge10" class="edge">
<title>CentriModule&#45;&gt;CentriComponent </title>
<path fill="none" stroke="black" stroke-dasharray="5,2" d="M698.68,-252.11C698.68,-252.11 698.68,-270.99 698.68,-270.99"/>
<polygon fill="black" stroke="black" points="695.18,-270.99 698.68,-280.99 702.18,-270.99 695.18,-270.99"/>
</g>
<!-- CentroEditComponent  -->
<g id="node12" class="node">
<title>CentroEditComponent </title>
<polygon fill="#fb8072" stroke="black" points="665.27,-317 518.73,-317 518.73,-281 665.27,-281 665.27,-317"/>
<text text-anchor="middle" x="592" y="-294.8" font-family="Times,serif" font-size="14.00">CentroEditComponent </text>
</g>
<!-- CentriModule&#45;&gt;CentroEditComponent  -->
<g id="edge11" class="edge">
<title>CentriModule&#45;&gt;CentroEditComponent </title>
<path fill="none" stroke="black" stroke-dasharray="5,2" d="M642.43,-252.11C642.43,-252.11 642.43,-270.99 642.43,-270.99"/>
<polygon fill="black" stroke="black" points="638.93,-270.99 642.43,-280.99 645.93,-270.99 638.93,-270.99"/>
</g>
<!-- ...generateGridProvidersAnagrafica(CentriHttpService, CentriComponent) -->
<g id="node8" class="node">
<title>...generateGridProvidersAnagrafica(CentriHttpService, CentriComponent)</title>
<ellipse fill="#fdb462" stroke="black" cx="584" cy="-104" rx="299.1" ry="18"/>
<text text-anchor="middle" x="584" y="-99.8" font-family="Times,serif" font-size="14.00">...generateGridProvidersAnagrafica(CentriHttpService, CentriComponent)</text>
</g>
<!-- ...generateGridProvidersAnagrafica(CentriHttpService, CentriComponent)&#45;&gt;CentriComponent -->
<g id="edge4" class="edge">
<title>...generateGridProvidersAnagrafica(CentriHttpService, CentriComponent)&#45;&gt;CentriComponent</title>
<path fill="none" stroke="black" d="M584,-122.11C584,-122.11 584,-140.99 584,-140.99"/>
<polygon fill="black" stroke="black" points="580.5,-140.99 584,-150.99 587.5,-140.99 580.5,-140.99"/>
</g>
<!-- TranslocoRootModule -->
<g id="node9" class="node">
<title>TranslocoRootModule</title>
<polygon fill="#8dd3c7" stroke="black" points="1267.25,-187 1264.25,-191 1243.25,-191 1240.25,-187 1124.75,-187 1124.75,-151 1267.25,-151 1267.25,-187"/>
<text text-anchor="middle" x="1196" y="-164.8" font-family="Times,serif" font-size="14.00">TranslocoRootModule</text>
</g>
<!-- TranslocoRootModule&#45;&gt;CentriModule -->
<g id="edge8" class="edge">
<title>TranslocoRootModule&#45;&gt;CentriModule</title>
<path fill="none" stroke="black" d="M1196,-187.29C1196,-209.21 1196,-243 1196,-243 1196,-243 724.41,-243 724.41,-243"/>
<polygon fill="black" stroke="black" points="724.41,-239.5 714.41,-243 724.41,-246.5 724.41,-239.5"/>
</g>
<!-- UikitModule -->
<g id="node10" class="node">
<title>UikitModule</title>
<polygon fill="#8dd3c7" stroke="black" points="1106.33,-187 1103.33,-191 1082.33,-191 1079.33,-187 1017.67,-187 1017.67,-151 1106.33,-151 1106.33,-187"/>
<text text-anchor="middle" x="1062" y="-164.8" font-family="Times,serif" font-size="14.00">UikitModule</text>
</g>
<!-- UikitModule&#45;&gt;CentriModule -->
<g id="edge9" class="edge">
<title>UikitModule&#45;&gt;CentriModule</title>
<path fill="none" stroke="black" d="M1062,-187.11C1062,-206.34 1062,-234 1062,-234 1062,-234 724.25,-234 724.25,-234"/>
<polygon fill="black" stroke="black" points="724.25,-230.5 714.25,-234 724.25,-237.5 724.25,-230.5"/>
</g>
</g>
</svg>
