<?xml version="1.0" encoding="UTF-8" standalone="no"?>
<!DOCTYPE svg PUBLIC "-//W3C//DTD SVG 1.1//EN"
 "http://www.w3.org/Graphics/SVG/1.1/DTD/svg11.dtd">
<!-- Generated by graphviz version 2.47.0 (20210316.0004)
 -->
<!-- Title: dependencies Pages: 1 -->
<svg width="688pt" height="349pt"
 viewBox="0.00 0.00 688.00 349.00" xmlns="http://www.w3.org/2000/svg" xmlns:xlink="http://www.w3.org/1999/xlink">
<g id="graph0" class="graph" transform="scale(1 1) rotate(0) translate(4 345)">
<title>dependencies</title>
<polygon fill="white" stroke="transparent" points="-4,4 -4,-345 684,-345 684,4 -4,4"/>
<text text-anchor="start" x="319.01" y="-42.4" font-family="Times-12" font-weight="bold" font-size="14.00">Legend</text>
<polygon fill="#ffffb3" stroke="transparent" points="106,-10 106,-30 126,-30 126,-10 106,-10"/>
<text text-anchor="start" x="129.63" y="-15.4" font-family="Times-12" font-size="14.00"> &#160;Declarations</text>
<polygon fill="#8dd3c7" stroke="transparent" points="219,-10 219,-30 239,-30 239,-10 219,-10"/>
<text text-anchor="start" x="242.73" y="-15.4" font-family="Times-12" font-size="14.00"> &#160;Module</text>
<polygon fill="#80b1d3" stroke="transparent" points="305,-10 305,-30 325,-30 325,-10 305,-10"/>
<text text-anchor="start" x="328.78" y="-15.4" font-family="Times-12" font-size="14.00"> &#160;Bootstrap</text>
<polygon fill="#fdb462" stroke="transparent" points="402,-10 402,-30 422,-30 422,-10 402,-10"/>
<text text-anchor="start" x="425.67" y="-15.4" font-family="Times-12" font-size="14.00"> &#160;Providers</text>
<polygon fill="#fb8072" stroke="transparent" points="498,-10 498,-30 518,-30 518,-10 498,-10"/>
<text text-anchor="start" x="521.73" y="-15.4" font-family="Times-12" font-size="14.00"> &#160;Exports</text>
<g id="clust1" class="cluster">
<title>cluster_ReportAbilitazionePdCModule</title>
<polygon fill="none" stroke="black" stroke-dasharray="1,5" points="8,-70 8,-333 672,-333 672,-70 8,-70"/>
</g>
<g id="clust2" class="cluster">
<title>cluster_ReportAbilitazionePdCModule_declarations</title>
<polygon fill="none" stroke="black" points="436,-143 436,-195 664,-195 664,-143 436,-143"/>
</g>
<g id="clust3" class="cluster">
<title>cluster_ReportAbilitazionePdCModule_ReportAbilitazionePdCComponent_providers</title>
<polygon fill="none" stroke="black" points="76,-78 76,-130 664,-130 664,-78 76,-78"/>
</g>
<g id="clust4" class="cluster">
<title>cluster_ReportAbilitazionePdCModule_imports</title>
<polygon fill="none" stroke="black" points="16,-143 16,-195 428,-195 428,-143 16,-143"/>
</g>
<g id="clust5" class="cluster">
<title>cluster_ReportAbilitazionePdCModule_exports</title>
<polygon fill="none" stroke="black" points="186,-273 186,-325 418,-325 418,-273 186,-273"/>
</g>
<!-- ReportAbilitazionePdCComponent -->
<g id="node1" class="node">
<title>ReportAbilitazionePdCComponent</title>
<polygon fill="#ffffb3" stroke="black" points="656.26,-187 443.74,-187 443.74,-151 656.26,-151 656.26,-187"/>
<text text-anchor="middle" x="550" y="-164.8" font-family="Times,serif" font-size="14.00">ReportAbilitazionePdCComponent</text>
</g>
<!-- ReportAbilitazionePdCModule -->
<g id="node2" class="node">
<title>ReportAbilitazionePdCModule</title>
<polygon fill="#8dd3c7" stroke="black" points="397.47,-252 394.47,-256 373.47,-256 370.47,-252 206.53,-252 206.53,-216 397.47,-216 397.47,-252"/>
<text text-anchor="middle" x="302" y="-229.8" font-family="Times,serif" font-size="14.00">ReportAbilitazionePdCModule</text>
</g>
<!-- ReportAbilitazionePdCComponent&#45;&gt;ReportAbilitazionePdCModule -->
<g id="edge1" class="edge">
<title>ReportAbilitazionePdCComponent&#45;&gt;ReportAbilitazionePdCModule</title>
<path fill="none" stroke="black" d="M550,-187.11C550,-206.34 550,-234 550,-234 550,-234 407.53,-234 407.53,-234"/>
<polygon fill="black" stroke="black" points="407.53,-230.5 397.53,-234 407.53,-237.5 407.53,-230.5"/>
</g>
<!-- ReportAbilitazionePdCComponent  -->
<g id="node7" class="node">
<title>ReportAbilitazionePdCComponent </title>
<polygon fill="#fb8072" stroke="black" points="410.26,-317 193.74,-317 193.74,-281 410.26,-281 410.26,-317"/>
<text text-anchor="middle" x="302" y="-294.8" font-family="Times,serif" font-size="14.00">ReportAbilitazionePdCComponent </text>
</g>
<!-- ReportAbilitazionePdCModule&#45;&gt;ReportAbilitazionePdCComponent  -->
<g id="edge6" class="edge">
<title>ReportAbilitazionePdCModule&#45;&gt;ReportAbilitazionePdCComponent </title>
<path fill="none" stroke="black" stroke-dasharray="5,2" d="M302,-252.11C302,-252.11 302,-270.99 302,-270.99"/>
<polygon fill="black" stroke="black" points="298.5,-270.99 302,-280.99 305.5,-270.99 298.5,-270.99"/>
</g>
<!-- GiasMultiSelectTemplateService -->
<g id="node3" class="node">
<title>GiasMultiSelectTemplateService</title>
<ellipse fill="#fdb462" stroke="black" cx="517" cy="-104" rx="139.43" ry="18"/>
<text text-anchor="middle" x="517" y="-99.8" font-family="Times,serif" font-size="14.00">GiasMultiSelectTemplateService</text>
</g>
<!-- GiasMultiSelectTemplateService&#45;&gt;ReportAbilitazionePdCComponent -->
<g id="edge2" class="edge">
<title>GiasMultiSelectTemplateService&#45;&gt;ReportAbilitazionePdCComponent</title>
<path fill="none" stroke="black" d="M585.35,-119.73C585.35,-119.73 585.35,-140.65 585.35,-140.65"/>
<polygon fill="black" stroke="black" points="581.85,-140.65 585.35,-150.65 588.85,-140.65 581.85,-140.65"/>
</g>
<!-- GiasDropDownTemplateService -->
<g id="node4" class="node">
<title>GiasDropDownTemplateService</title>
<ellipse fill="#fdb462" stroke="black" cx="222" cy="-104" rx="137.7" ry="18"/>
<text text-anchor="middle" x="222" y="-99.8" font-family="Times,serif" font-size="14.00">GiasDropDownTemplateService</text>
</g>
<!-- GiasDropDownTemplateService&#45;&gt;ReportAbilitazionePdCComponent -->
<g id="edge3" class="edge">
<title>GiasDropDownTemplateService&#45;&gt;ReportAbilitazionePdCComponent</title>
<path fill="none" stroke="black" d="M271.78,-120.89C271.78,-129.01 271.78,-137 271.78,-137 271.78,-137 514.49,-137 514.49,-137 514.49,-137 514.49,-140.76 514.49,-140.76"/>
<polygon fill="black" stroke="black" points="510.99,-140.76 514.49,-150.76 517.99,-140.76 510.99,-140.76"/>
</g>
<!-- ReportAbilitazionePdCRoutingModule -->
<g id="node5" class="node">
<title>ReportAbilitazionePdCRoutingModule</title>
<polygon fill="#8dd3c7" stroke="black" points="420.09,-187 417.09,-191 396.09,-191 393.09,-187 183.91,-187 183.91,-151 420.09,-151 420.09,-187"/>
<text text-anchor="middle" x="302" y="-164.8" font-family="Times,serif" font-size="14.00">ReportAbilitazionePdCRoutingModule</text>
</g>
<!-- ReportAbilitazionePdCRoutingModule&#45;&gt;ReportAbilitazionePdCModule -->
<g id="edge4" class="edge">
<title>ReportAbilitazionePdCRoutingModule&#45;&gt;ReportAbilitazionePdCModule</title>
<path fill="none" stroke="black" d="M302,-187.11C302,-187.11 302,-205.99 302,-205.99"/>
<polygon fill="black" stroke="black" points="298.5,-205.99 302,-215.99 305.5,-205.99 298.5,-205.99"/>
</g>
<!-- TranslocoRootModule -->
<g id="node6" class="node">
<title>TranslocoRootModule</title>
<polygon fill="#8dd3c7" stroke="black" points="166.25,-187 163.25,-191 142.25,-191 139.25,-187 23.75,-187 23.75,-151 166.25,-151 166.25,-187"/>
<text text-anchor="middle" x="95" y="-164.8" font-family="Times,serif" font-size="14.00">TranslocoRootModule</text>
</g>
<!-- TranslocoRootModule&#45;&gt;ReportAbilitazionePdCModule -->
<g id="edge5" class="edge">
<title>TranslocoRootModule&#45;&gt;ReportAbilitazionePdCModule</title>
<path fill="none" stroke="black" d="M95,-187.11C95,-206.34 95,-234 95,-234 95,-234 196.38,-234 196.38,-234"/>
<polygon fill="black" stroke="black" points="196.38,-237.5 206.38,-234 196.38,-230.5 196.38,-237.5"/>
</g>
</g>
</svg>
