<?xml version="1.0" encoding="UTF-8" standalone="no"?>
<!DOCTYPE svg PUBLIC "-//W3C//DTD SVG 1.1//EN"
 "http://www.w3.org/Graphics/SVG/1.1/DTD/svg11.dtd">
<!-- Generated by graphviz version 2.47.0 (20210316.0004)
 -->
<!-- Title: dependencies Pages: 1 -->
<svg width="1134pt" height="349pt"
 viewBox="0.00 0.00 1134.00 349.00" xmlns="http://www.w3.org/2000/svg" xmlns:xlink="http://www.w3.org/1999/xlink">
<g id="graph0" class="graph" transform="scale(1 1) rotate(0) translate(4 345)">
<title>dependencies</title>
<polygon fill="white" stroke="transparent" points="-4,4 -4,-345 1130,-345 1130,4 -4,4"/>
<text text-anchor="start" x="542.01" y="-42.4" font-family="Times-12" font-weight="bold" font-size="14.00">Legend</text>
<polygon fill="#ffffb3" stroke="transparent" points="329,-10 329,-30 349,-30 349,-10 329,-10"/>
<text text-anchor="start" x="352.63" y="-15.4" font-family="Times-12" font-size="14.00"> &#160;Declarations</text>
<polygon fill="#8dd3c7" stroke="transparent" points="442,-10 442,-30 462,-30 462,-10 442,-10"/>
<text text-anchor="start" x="465.73" y="-15.4" font-family="Times-12" font-size="14.00"> &#160;Module</text>
<polygon fill="#80b1d3" stroke="transparent" points="528,-10 528,-30 548,-30 548,-10 528,-10"/>
<text text-anchor="start" x="551.78" y="-15.4" font-family="Times-12" font-size="14.00"> &#160;Bootstrap</text>
<polygon fill="#fdb462" stroke="transparent" points="625,-10 625,-30 645,-30 645,-10 625,-10"/>
<text text-anchor="start" x="648.67" y="-15.4" font-family="Times-12" font-size="14.00"> &#160;Providers</text>
<polygon fill="#fb8072" stroke="transparent" points="721,-10 721,-30 741,-30 741,-10 721,-10"/>
<text text-anchor="start" x="744.73" y="-15.4" font-family="Times-12" font-size="14.00"> &#160;Exports</text>
<g id="clust1" class="cluster">
<title>cluster_GruppiRaccoltaModule</title>
<polygon fill="none" stroke="black" stroke-dasharray="1,5" points="8,-70 8,-333 1118,-333 1118,-70 8,-70"/>
</g>
<g id="clust2" class="cluster">
<title>cluster_GruppiRaccoltaModule_declarations</title>
<polygon fill="none" stroke="black" points="180,-143 180,-195 366,-195 366,-143 180,-143"/>
</g>
<g id="clust4" class="cluster">
<title>cluster_GruppiRaccoltaModule_imports</title>
<polygon fill="none" stroke="black" points="374,-143 374,-195 1005,-195 1005,-143 374,-143"/>
</g>
<g id="clust5" class="cluster">
<title>cluster_GruppiRaccoltaModule_exports</title>
<polygon fill="none" stroke="black" points="465,-273 465,-325 655,-325 655,-273 465,-273"/>
</g>
<g id="clust3" class="cluster">
<title>cluster_GruppiRaccoltaModule_GruppiRaccoltaComponent_providers</title>
<polygon fill="none" stroke="black" points="16,-78 16,-130 1110,-130 1110,-78 16,-78"/>
</g>
<!-- GruppiRaccoltaComponent -->
<g id="node1" class="node">
<title>GruppiRaccoltaComponent</title>
<polygon fill="#ffffb3" stroke="black" points="357.97,-187 188.03,-187 188.03,-151 357.97,-151 357.97,-187"/>
<text text-anchor="middle" x="273" y="-164.8" font-family="Times,serif" font-size="14.00">GruppiRaccoltaComponent</text>
</g>
<!-- GruppiRaccoltaModule -->
<g id="node2" class="node">
<title>GruppiRaccoltaModule</title>
<polygon fill="#8dd3c7" stroke="black" points="634.18,-252 631.18,-256 610.18,-256 607.18,-252 485.82,-252 485.82,-216 634.18,-216 634.18,-252"/>
<text text-anchor="middle" x="560" y="-229.8" font-family="Times,serif" font-size="14.00">GruppiRaccoltaModule</text>
</g>
<!-- GruppiRaccoltaComponent&#45;&gt;GruppiRaccoltaModule -->
<g id="edge1" class="edge">
<title>GruppiRaccoltaComponent&#45;&gt;GruppiRaccoltaModule</title>
<path fill="none" stroke="black" d="M273,-187.28C273,-208.32 273,-240 273,-240 273,-240 475.72,-240 475.72,-240"/>
<polygon fill="black" stroke="black" points="475.72,-243.5 485.72,-240 475.72,-236.5 475.72,-243.5"/>
</g>
<!-- GruppiRaccoltaComponent  -->
<g id="node9" class="node">
<title>GruppiRaccoltaComponent </title>
<polygon fill="#fb8072" stroke="black" points="646.97,-317 473.03,-317 473.03,-281 646.97,-281 646.97,-317"/>
<text text-anchor="middle" x="560" y="-294.8" font-family="Times,serif" font-size="14.00">GruppiRaccoltaComponent </text>
</g>
<!-- GruppiRaccoltaModule&#45;&gt;GruppiRaccoltaComponent  -->
<g id="edge8" class="edge">
<title>GruppiRaccoltaModule&#45;&gt;GruppiRaccoltaComponent </title>
<path fill="none" stroke="black" stroke-dasharray="5,2" d="M560,-252.11C560,-252.11 560,-270.99 560,-270.99"/>
<polygon fill="black" stroke="black" points="556.5,-270.99 560,-280.99 563.5,-270.99 556.5,-270.99"/>
</g>
<!-- ...generateGridProviders(GruppiRaccoltaGridConfigurationService, GruppiRaccoltaComponent) -->
<g id="node3" class="node">
<title>...generateGridProviders(GruppiRaccoltaGridConfigurationService, GruppiRaccoltaComponent)</title>
<ellipse fill="#fdb462" stroke="black" cx="717" cy="-104" rx="385.24" ry="18"/>
<text text-anchor="middle" x="717" y="-99.8" font-family="Times,serif" font-size="14.00">...generateGridProviders(GruppiRaccoltaGridConfigurationService, GruppiRaccoltaComponent)</text>
</g>
<!-- ...generateGridProviders(GruppiRaccoltaGridConfigurationService, GruppiRaccoltaComponent)&#45;&gt;GruppiRaccoltaComponent -->
<g id="edge2" class="edge">
<title>...generateGridProviders(GruppiRaccoltaGridConfigurationService, GruppiRaccoltaComponent)&#45;&gt;GruppiRaccoltaComponent</title>
<path fill="none" stroke="black" d="M344.93,-108.67C344.93,-108.67 344.93,-140.74 344.93,-140.74"/>
<polygon fill="black" stroke="black" points="341.43,-140.74 344.93,-150.74 348.43,-140.74 341.43,-140.74"/>
</g>
<!-- GruppiRaccoltaGridEventsService -->
<g id="node4" class="node">
<title>GruppiRaccoltaGridEventsService</title>
<ellipse fill="#fdb462" stroke="black" cx="169" cy="-104" rx="145.22" ry="18"/>
<text text-anchor="middle" x="169" y="-99.8" font-family="Times,serif" font-size="14.00">GruppiRaccoltaGridEventsService</text>
</g>
<!-- GruppiRaccoltaGridEventsService&#45;&gt;GruppiRaccoltaComponent -->
<g id="edge3" class="edge">
<title>GruppiRaccoltaGridEventsService&#45;&gt;GruppiRaccoltaComponent</title>
<path fill="none" stroke="black" d="M251.06,-119.08C251.06,-119.08 251.06,-140.76 251.06,-140.76"/>
<polygon fill="black" stroke="black" points="247.56,-140.76 251.06,-150.76 254.56,-140.76 247.56,-140.76"/>
</g>
<!-- GruppiRaccoltaRoutingModule -->
<g id="node5" class="node">
<title>GruppiRaccoltaRoutingModule</title>
<polygon fill="#8dd3c7" stroke="black" points="996.8,-187 993.8,-191 972.8,-191 969.8,-187 803.2,-187 803.2,-151 996.8,-151 996.8,-187"/>
<text text-anchor="middle" x="900" y="-164.8" font-family="Times,serif" font-size="14.00">GruppiRaccoltaRoutingModule</text>
</g>
<!-- GruppiRaccoltaRoutingModule&#45;&gt;GruppiRaccoltaModule -->
<g id="edge4" class="edge">
<title>GruppiRaccoltaRoutingModule&#45;&gt;GruppiRaccoltaModule</title>
<path fill="none" stroke="black" d="M900,-187.28C900,-208.32 900,-240 900,-240 900,-240 644.19,-240 644.19,-240"/>
<polygon fill="black" stroke="black" points="644.19,-236.5 634.19,-240 644.19,-243.5 644.19,-236.5"/>
</g>
<!-- MenuAgendaModule -->
<g id="node6" class="node">
<title>MenuAgendaModule</title>
<polygon fill="#8dd3c7" stroke="black" points="784.75,-187 781.75,-191 760.75,-191 757.75,-187 649.25,-187 649.25,-151 784.75,-151 784.75,-187"/>
<text text-anchor="middle" x="717" y="-164.8" font-family="Times,serif" font-size="14.00">MenuAgendaModule</text>
</g>
<!-- MenuAgendaModule&#45;&gt;GruppiRaccoltaModule -->
<g id="edge5" class="edge">
<title>MenuAgendaModule&#45;&gt;GruppiRaccoltaModule</title>
<path fill="none" stroke="black" d="M717,-187.02C717,-204.37 717,-228 717,-228 717,-228 644.36,-228 644.36,-228"/>
<polygon fill="black" stroke="black" points="644.36,-224.5 634.36,-228 644.36,-231.5 644.36,-224.5"/>
</g>
<!-- TranslocoRootModule -->
<g id="node7" class="node">
<title>TranslocoRootModule</title>
<polygon fill="#8dd3c7" stroke="black" points="631.25,-187 628.25,-191 607.25,-191 604.25,-187 488.75,-187 488.75,-151 631.25,-151 631.25,-187"/>
<text text-anchor="middle" x="560" y="-164.8" font-family="Times,serif" font-size="14.00">TranslocoRootModule</text>
</g>
<!-- TranslocoRootModule&#45;&gt;GruppiRaccoltaModule -->
<g id="edge6" class="edge">
<title>TranslocoRootModule&#45;&gt;GruppiRaccoltaModule</title>
<path fill="none" stroke="black" d="M560,-187.11C560,-187.11 560,-205.99 560,-205.99"/>
<polygon fill="black" stroke="black" points="556.5,-205.99 560,-215.99 563.5,-205.99 556.5,-205.99"/>
</g>
<!-- UikitModule -->
<g id="node8" class="node">
<title>UikitModule</title>
<polygon fill="#8dd3c7" stroke="black" points="470.33,-187 467.33,-191 446.33,-191 443.33,-187 381.67,-187 381.67,-151 470.33,-151 470.33,-187"/>
<text text-anchor="middle" x="426" y="-164.8" font-family="Times,serif" font-size="14.00">UikitModule</text>
</g>
<!-- UikitModule&#45;&gt;GruppiRaccoltaModule -->
<g id="edge7" class="edge">
<title>UikitModule&#45;&gt;GruppiRaccoltaModule</title>
<path fill="none" stroke="black" d="M426,-187.02C426,-204.37 426,-228 426,-228 426,-228 475.55,-228 475.55,-228"/>
<polygon fill="black" stroke="black" points="475.55,-231.5 485.55,-228 475.55,-224.5 475.55,-231.5"/>
</g>
</g>
</svg>
