<?xml version="1.0" encoding="UTF-8" standalone="no"?>
<!DOCTYPE svg PUBLIC "-//W3C//DTD SVG 1.1//EN"
 "http://www.w3.org/Graphics/SVG/1.1/DTD/svg11.dtd">
<!-- Generated by graphviz version 2.47.0 (20210316.0004)
 -->
<!-- Title: dependencies Pages: 1 -->
<svg width="2566pt" height="276pt"
 viewBox="0.00 0.00 2566.00 276.00" xmlns="http://www.w3.org/2000/svg" xmlns:xlink="http://www.w3.org/1999/xlink">
<g id="graph0" class="graph" transform="scale(1 1) rotate(0) translate(4 272)">
<title>dependencies</title>
<polygon fill="white" stroke="transparent" points="-4,4 -4,-272 2562,-272 2562,4 -4,4"/>
<text text-anchor="start" x="1258.01" y="-42.4" font-family="Times-12" font-weight="bold" font-size="14.00">Legend</text>
<polygon fill="#ffffb3" stroke="transparent" points="1045,-10 1045,-30 1065,-30 1065,-10 1045,-10"/>
<text text-anchor="start" x="1068.63" y="-15.4" font-family="Times-12" font-size="14.00"> &#160;Declarations</text>
<polygon fill="#8dd3c7" stroke="transparent" points="1158,-10 1158,-30 1178,-30 1178,-10 1158,-10"/>
<text text-anchor="start" x="1181.73" y="-15.4" font-family="Times-12" font-size="14.00"> &#160;Module</text>
<polygon fill="#80b1d3" stroke="transparent" points="1244,-10 1244,-30 1264,-30 1264,-10 1244,-10"/>
<text text-anchor="start" x="1267.78" y="-15.4" font-family="Times-12" font-size="14.00"> &#160;Bootstrap</text>
<polygon fill="#fdb462" stroke="transparent" points="1341,-10 1341,-30 1361,-30 1361,-10 1341,-10"/>
<text text-anchor="start" x="1364.67" y="-15.4" font-family="Times-12" font-size="14.00"> &#160;Providers</text>
<polygon fill="#fb8072" stroke="transparent" points="1437,-10 1437,-30 1457,-30 1457,-10 1437,-10"/>
<text text-anchor="start" x="1460.73" y="-15.4" font-family="Times-12" font-size="14.00"> &#160;Exports</text>
<g id="clust1" class="cluster">
<title>cluster_TrattamentoZooModule</title>
<polygon fill="none" stroke="black" stroke-dasharray="1,5" points="8,-70 8,-260 2550,-260 2550,-70 8,-70"/>
</g>
<g id="clust9" class="cluster">
<title>cluster_TrattamentoZooModule_providers</title>
<polygon fill="none" stroke="black" points="1734,-143 1734,-195 2542,-195 2542,-143 1734,-143"/>
</g>
<g id="clust5" class="cluster">
<title>cluster_TrattamentoZooModule_TrattamentoZooComponent_providers</title>
<polygon fill="none" stroke="black" points="872,-78 872,-195 1726,-195 1726,-78 872,-78"/>
</g>
<g id="clust2" class="cluster">
<title>cluster_TrattamentoZooModule_declarations</title>
<polygon fill="none" stroke="black" points="396,-143 396,-195 864,-195 864,-143 396,-143"/>
</g>
<g id="clust6" class="cluster">
<title>cluster_TrattamentoZooModule_imports</title>
<polygon fill="none" stroke="black" points="16,-143 16,-195 388,-195 388,-143 16,-143"/>
</g>
<!-- GridCapiAnimaliComponent -->
<g id="node1" class="node">
<title>GridCapiAnimaliComponent</title>
<polygon fill="#ffffb3" stroke="black" points="855.82,-187 676.18,-187 676.18,-151 855.82,-151 855.82,-187"/>
<text text-anchor="middle" x="766" y="-164.8" font-family="Times,serif" font-size="14.00">GridCapiAnimaliComponent</text>
</g>
<!-- TrattamentoZooModule -->
<g id="node4" class="node">
<title>TrattamentoZooModule</title>
<polygon fill="#8dd3c7" stroke="black" points="960.02,-252 957.02,-256 936.02,-256 933.02,-252 809.98,-252 809.98,-216 960.02,-216 960.02,-252"/>
<text text-anchor="middle" x="885" y="-229.8" font-family="Times,serif" font-size="14.00">TrattamentoZooModule</text>
</g>
<!-- GridCapiAnimaliComponent&#45;&gt;TrattamentoZooModule -->
<g id="edge1" class="edge">
<title>GridCapiAnimaliComponent&#45;&gt;TrattamentoZooModule</title>
<path fill="none" stroke="black" d="M832.7,-187.11C832.7,-187.11 832.7,-205.99 832.7,-205.99"/>
<polygon fill="black" stroke="black" points="829.2,-205.99 832.7,-215.99 836.2,-205.99 829.2,-205.99"/>
</g>
<!-- GridProdottiSomministrazioneComponent -->
<g id="node2" class="node">
<title>GridProdottiSomministrazioneComponent</title>
<polygon fill="#ffffb3" stroke="black" points="657.98,-187 404.02,-187 404.02,-151 657.98,-151 657.98,-187"/>
<text text-anchor="middle" x="531" y="-164.8" font-family="Times,serif" font-size="14.00">GridProdottiSomministrazioneComponent</text>
</g>
<!-- GridProdottiSomministrazioneComponent&#45;&gt;TrattamentoZooModule -->
<g id="edge2" class="edge">
<title>GridProdottiSomministrazioneComponent&#45;&gt;TrattamentoZooModule</title>
<path fill="none" stroke="black" d="M531,-187.03C531,-203.4 531,-225 531,-225 531,-225 799.93,-225 799.93,-225"/>
<polygon fill="black" stroke="black" points="799.93,-228.5 809.93,-225 799.93,-221.5 799.93,-228.5"/>
</g>
<!-- TrattamentoZooComponent -->
<g id="node3" class="node">
<title>TrattamentoZooComponent</title>
<polygon fill="#ffffb3" stroke="black" points="1230.3,-187 1057.7,-187 1057.7,-151 1230.3,-151 1230.3,-187"/>
<text text-anchor="middle" x="1144" y="-164.8" font-family="Times,serif" font-size="14.00">TrattamentoZooComponent</text>
</g>
<!-- TrattamentoZooComponent&#45;&gt;TrattamentoZooModule -->
<g id="edge3" class="edge">
<title>TrattamentoZooComponent&#45;&gt;TrattamentoZooModule</title>
<path fill="none" stroke="black" d="M1057.83,-169C994.81,-169 920.3,-169 920.3,-169 920.3,-169 920.3,-205.89 920.3,-205.89"/>
<polygon fill="black" stroke="black" points="916.8,-205.89 920.3,-215.89 923.8,-205.89 916.8,-205.89"/>
</g>
<!-- GiasDropDownTemplateService -->
<g id="node5" class="node">
<title>GiasDropDownTemplateService</title>
<ellipse fill="#fdb462" stroke="black" cx="1580" cy="-104" rx="137.7" ry="18"/>
<text text-anchor="middle" x="1580" y="-99.8" font-family="Times,serif" font-size="14.00">GiasDropDownTemplateService</text>
</g>
<!-- GiasDropDownTemplateService&#45;&gt;TrattamentoZooComponent -->
<g id="edge4" class="edge">
<title>GiasDropDownTemplateService&#45;&gt;TrattamentoZooComponent</title>
<path fill="none" stroke="black" d="M1580,-122.11C1580,-141.34 1580,-169 1580,-169 1580,-169 1240.4,-169 1240.4,-169"/>
<polygon fill="black" stroke="black" points="1240.4,-165.5 1230.4,-169 1240.4,-172.5 1240.4,-165.5"/>
</g>
<!-- GiasMultiSelectTemplateService -->
<g id="node6" class="node">
<title>GiasMultiSelectTemplateService</title>
<ellipse fill="#fdb462" stroke="black" cx="1285" cy="-104" rx="139.43" ry="18"/>
<text text-anchor="middle" x="1285" y="-99.8" font-family="Times,serif" font-size="14.00">GiasMultiSelectTemplateService</text>
</g>
<!-- GiasMultiSelectTemplateService&#45;&gt;TrattamentoZooComponent -->
<g id="edge5" class="edge">
<title>GiasMultiSelectTemplateService&#45;&gt;TrattamentoZooComponent</title>
<path fill="none" stroke="black" d="M1187.97,-117.15C1187.97,-117.15 1187.97,-140.69 1187.97,-140.69"/>
<polygon fill="black" stroke="black" points="1184.47,-140.69 1187.97,-150.69 1191.47,-140.69 1184.47,-140.69"/>
</g>
<!-- TrattamentoZooFormService -->
<g id="node7" class="node">
<title>TrattamentoZooFormService</title>
<ellipse fill="#fdb462" stroke="black" cx="1004" cy="-104" rx="123.83" ry="18"/>
<text text-anchor="middle" x="1004" y="-99.8" font-family="Times,serif" font-size="14.00">TrattamentoZooFormService</text>
</g>
<!-- TrattamentoZooFormService&#45;&gt;TrattamentoZooComponent -->
<g id="edge6" class="edge">
<title>TrattamentoZooFormService&#45;&gt;TrattamentoZooComponent</title>
<path fill="none" stroke="black" d="M1092.76,-116.84C1092.76,-116.84 1092.76,-140.52 1092.76,-140.52"/>
<polygon fill="black" stroke="black" points="1089.26,-140.52 1092.76,-150.52 1096.26,-140.52 1089.26,-140.52"/>
</g>
<!-- TranslocoRootModule -->
<g id="node8" class="node">
<title>TranslocoRootModule</title>
<polygon fill="#8dd3c7" stroke="black" points="380.25,-187 377.25,-191 356.25,-191 353.25,-187 237.75,-187 237.75,-151 380.25,-151 380.25,-187"/>
<text text-anchor="middle" x="309" y="-164.8" font-family="Times,serif" font-size="14.00">TranslocoRootModule</text>
</g>
<!-- TranslocoRootModule&#45;&gt;TrattamentoZooModule -->
<g id="edge7" class="edge">
<title>TranslocoRootModule&#45;&gt;TrattamentoZooModule</title>
<path fill="none" stroke="black" d="M309,-187.11C309,-206.34 309,-234 309,-234 309,-234 799.7,-234 799.7,-234"/>
<polygon fill="black" stroke="black" points="799.7,-237.5 809.7,-234 799.7,-230.5 799.7,-237.5"/>
</g>
<!-- TrattamentoZooRoutingModule -->
<g id="node9" class="node">
<title>TrattamentoZooRoutingModule</title>
<polygon fill="#8dd3c7" stroke="black" points="219.64,-187 216.64,-191 195.64,-191 192.64,-187 24.36,-187 24.36,-151 219.64,-151 219.64,-187"/>
<text text-anchor="middle" x="122" y="-164.8" font-family="Times,serif" font-size="14.00">TrattamentoZooRoutingModule</text>
</g>
<!-- TrattamentoZooRoutingModule&#45;&gt;TrattamentoZooModule -->
<g id="edge8" class="edge">
<title>TrattamentoZooRoutingModule&#45;&gt;TrattamentoZooModule</title>
<path fill="none" stroke="black" d="M122,-187.29C122,-209.21 122,-243 122,-243 122,-243 799.75,-243 799.75,-243"/>
<polygon fill="black" stroke="black" points="799.75,-246.5 809.75,-243 799.75,-239.5 799.75,-246.5"/>
</g>
<!-- BreadcrumbsService -->
<g id="node10" class="node">
<title>BreadcrumbsService</title>
<ellipse fill="#fdb462" stroke="black" cx="2443" cy="-169" rx="91.45" ry="18"/>
<text text-anchor="middle" x="2443" y="-164.8" font-family="Times,serif" font-size="14.00">BreadcrumbsService</text>
</g>
<!-- BreadcrumbsService&#45;&gt;TrattamentoZooModule -->
<g id="edge9" class="edge">
<title>BreadcrumbsService&#45;&gt;TrattamentoZooModule</title>
<path fill="none" stroke="black" d="M2443,-187.29C2443,-209.21 2443,-243 2443,-243 2443,-243 970.15,-243 970.15,-243"/>
<polygon fill="black" stroke="black" points="970.15,-239.5 960.15,-243 970.15,-246.5 970.15,-239.5"/>
</g>
<!-- CapiAnimaliConfigService -->
<g id="node11" class="node">
<title>CapiAnimaliConfigService</title>
<ellipse fill="#fdb462" stroke="black" cx="2217" cy="-169" rx="116.91" ry="18"/>
<text text-anchor="middle" x="2217" y="-164.8" font-family="Times,serif" font-size="14.00">CapiAnimaliConfigService</text>
</g>
<!-- CapiAnimaliConfigService&#45;&gt;TrattamentoZooModule -->
<g id="edge10" class="edge">
<title>CapiAnimaliConfigService&#45;&gt;TrattamentoZooModule</title>
<path fill="none" stroke="black" d="M2217,-187.11C2217,-206.34 2217,-234 2217,-234 2217,-234 970.43,-234 970.43,-234"/>
<polygon fill="black" stroke="black" points="970.43,-230.5 960.43,-234 970.43,-237.5 970.43,-230.5"/>
</g>
<!-- ProdottoSomministrazioneConfigService -->
<g id="node12" class="node">
<title>ProdottoSomministrazioneConfigService</title>
<ellipse fill="#fdb462" stroke="black" cx="1912" cy="-169" rx="170.2" ry="18"/>
<text text-anchor="middle" x="1912" y="-164.8" font-family="Times,serif" font-size="14.00">ProdottoSomministrazioneConfigService</text>
</g>
<!-- ProdottoSomministrazioneConfigService&#45;&gt;TrattamentoZooModule -->
<g id="edge11" class="edge">
<title>ProdottoSomministrazioneConfigService&#45;&gt;TrattamentoZooModule</title>
<path fill="none" stroke="black" d="M1912,-187.03C1912,-203.4 1912,-225 1912,-225 1912,-225 970.1,-225 970.1,-225"/>
<polygon fill="black" stroke="black" points="970.1,-221.5 960.1,-225 970.1,-228.5 970.1,-221.5"/>
</g>
</g>
</svg>
