<?xml version="1.0" encoding="UTF-8" standalone="no"?>
<!DOCTYPE svg PUBLIC "-//W3C//DTD SVG 1.1//EN"
 "http://www.w3.org/Graphics/SVG/1.1/DTD/svg11.dtd">
<!-- Generated by graphviz version 2.47.0 (20210316.0004)
 -->
<!-- Title: dependencies Pages: 1 -->
<svg width="2511pt" height="349pt"
 viewBox="0.00 0.00 2511.00 349.00" xmlns="http://www.w3.org/2000/svg" xmlns:xlink="http://www.w3.org/1999/xlink">
<g id="graph0" class="graph" transform="scale(1 1) rotate(0) translate(4 345)">
<title>dependencies</title>
<polygon fill="white" stroke="transparent" points="-4,4 -4,-345 2507,-345 2507,4 -4,4"/>
<text text-anchor="start" x="1230.51" y="-42.4" font-family="Times-12" font-weight="bold" font-size="14.00">Legend</text>
<polygon fill="#ffffb3" stroke="transparent" points="1017.5,-10 1017.5,-30 1037.5,-30 1037.5,-10 1017.5,-10"/>
<text text-anchor="start" x="1041.13" y="-15.4" font-family="Times-12" font-size="14.00"> &#160;Declarations</text>
<polygon fill="#8dd3c7" stroke="transparent" points="1130.5,-10 1130.5,-30 1150.5,-30 1150.5,-10 1130.5,-10"/>
<text text-anchor="start" x="1154.23" y="-15.4" font-family="Times-12" font-size="14.00"> &#160;Module</text>
<polygon fill="#80b1d3" stroke="transparent" points="1216.5,-10 1216.5,-30 1236.5,-30 1236.5,-10 1216.5,-10"/>
<text text-anchor="start" x="1240.28" y="-15.4" font-family="Times-12" font-size="14.00"> &#160;Bootstrap</text>
<polygon fill="#fdb462" stroke="transparent" points="1313.5,-10 1313.5,-30 1333.5,-30 1333.5,-10 1313.5,-10"/>
<text text-anchor="start" x="1337.17" y="-15.4" font-family="Times-12" font-size="14.00"> &#160;Providers</text>
<polygon fill="#fb8072" stroke="transparent" points="1409.5,-10 1409.5,-30 1429.5,-30 1429.5,-10 1409.5,-10"/>
<text text-anchor="start" x="1433.23" y="-15.4" font-family="Times-12" font-size="14.00"> &#160;Exports</text>
<g id="clust1" class="cluster">
<title>cluster_ZooModule</title>
<polygon fill="none" stroke="black" stroke-dasharray="1,5" points="8,-70 8,-333 2495,-333 2495,-70 8,-70"/>
</g>
<g id="clust8" class="cluster">
<title>cluster_ZooModule_exports</title>
<polygon fill="none" stroke="black" points="1542,-273 1542,-325 1666,-325 1666,-273 1542,-273"/>
</g>
<g id="clust7" class="cluster">
<title>cluster_ZooModule_imports</title>
<polygon fill="none" stroke="black" points="1406,-143 1406,-195 2487,-195 2487,-143 1406,-143"/>
</g>
<g id="clust4" class="cluster">
<title>cluster_ZooModule_ZooComponent_providers</title>
<polygon fill="none" stroke="black" points="600,-78 600,-195 1398,-195 1398,-78 600,-78"/>
</g>
<g id="clust2" class="cluster">
<title>cluster_ZooModule_declarations</title>
<polygon fill="none" stroke="black" points="16,-143 16,-195 592,-195 592,-143 16,-143"/>
</g>
<!-- MenuZooComponent -->
<g id="node1" class="node">
<title>MenuZooComponent</title>
<polygon fill="#ffffb3" stroke="black" points="584.04,-187 447.96,-187 447.96,-151 584.04,-151 584.04,-187"/>
<text text-anchor="middle" x="516" y="-164.8" font-family="Times,serif" font-size="14.00">MenuZooComponent</text>
</g>
<!-- ZooModule -->
<g id="node5" class="node">
<title>ZooModule</title>
<polygon fill="#8dd3c7" stroke="black" points="1645.1,-252 1642.1,-256 1621.1,-256 1618.1,-252 1562.9,-252 1562.9,-216 1645.1,-216 1645.1,-252"/>
<text text-anchor="middle" x="1604" y="-229.8" font-family="Times,serif" font-size="14.00">ZooModule</text>
</g>
<!-- MenuZooComponent&#45;&gt;ZooModule -->
<g id="edge1" class="edge">
<title>MenuZooComponent&#45;&gt;ZooModule</title>
<path fill="none" stroke="black" d="M516,-187.11C516,-206.34 516,-234 516,-234 516,-234 1552.68,-234 1552.68,-234"/>
<polygon fill="black" stroke="black" points="1552.68,-237.5 1562.68,-234 1552.68,-230.5 1552.68,-237.5"/>
</g>
<!-- ZooComponent -->
<g id="node2" class="node">
<title>ZooComponent</title>
<polygon fill="#ffffb3" stroke="black" points="1219.89,-187 1116.11,-187 1116.11,-151 1219.89,-151 1219.89,-187"/>
<text text-anchor="middle" x="1168" y="-164.8" font-family="Times,serif" font-size="14.00">ZooComponent</text>
</g>
<!-- ZooComponent&#45;&gt;ZooModule -->
<g id="edge2" class="edge">
<title>ZooComponent&#45;&gt;ZooModule</title>
<path fill="none" stroke="black" d="M1168,-187.02C1168,-204.37 1168,-228 1168,-228 1168,-228 1552.59,-228 1552.59,-228"/>
<polygon fill="black" stroke="black" points="1552.59,-231.5 1562.59,-228 1552.59,-224.5 1552.59,-231.5"/>
</g>
<!-- ZooFavoritesEditingComponent -->
<g id="node3" class="node">
<title>ZooFavoritesEditingComponent</title>
<polygon fill="#ffffb3" stroke="black" points="429.71,-187 232.29,-187 232.29,-151 429.71,-151 429.71,-187"/>
<text text-anchor="middle" x="331" y="-164.8" font-family="Times,serif" font-size="14.00">ZooFavoritesEditingComponent</text>
</g>
<!-- ZooFavoritesEditingComponent&#45;&gt;ZooModule -->
<g id="edge6" class="edge">
<title>ZooFavoritesEditingComponent&#45;&gt;ZooModule</title>
<path fill="none" stroke="black" d="M331,-187.28C331,-208.32 331,-240 331,-240 331,-240 1552.73,-240 1552.73,-240"/>
<polygon fill="black" stroke="black" points="1552.73,-243.5 1562.73,-240 1552.73,-236.5 1552.73,-243.5"/>
</g>
<!-- ZooOperationsGridComponent -->
<g id="node4" class="node">
<title>ZooOperationsGridComponent</title>
<polygon fill="#ffffb3" stroke="black" points="214.47,-187 23.53,-187 23.53,-151 214.47,-151 214.47,-187"/>
<text text-anchor="middle" x="119" y="-164.8" font-family="Times,serif" font-size="14.00">ZooOperationsGridComponent</text>
</g>
<!-- ZooOperationsGridComponent&#45;&gt;ZooModule -->
<g id="edge7" class="edge">
<title>ZooOperationsGridComponent&#45;&gt;ZooModule</title>
<path fill="none" stroke="black" d="M119,-187.25C119,-210.02 119,-246 119,-246 119,-246 1552.73,-246 1552.73,-246"/>
<polygon fill="black" stroke="black" points="1552.73,-249.5 1562.73,-246 1552.73,-242.5 1552.73,-249.5"/>
</g>
<!-- ZooComponent  -->
<g id="node16" class="node">
<title>ZooComponent </title>
<polygon fill="#fb8072" stroke="black" points="1657.89,-317 1550.11,-317 1550.11,-281 1657.89,-281 1657.89,-317"/>
<text text-anchor="middle" x="1604" y="-294.8" font-family="Times,serif" font-size="14.00">ZooComponent </text>
</g>
<!-- ZooModule&#45;&gt;ZooComponent  -->
<g id="edge15" class="edge">
<title>ZooModule&#45;&gt;ZooComponent </title>
<path fill="none" stroke="black" stroke-dasharray="5,2" d="M1604,-252.11C1604,-252.11 1604,-270.99 1604,-270.99"/>
<polygon fill="black" stroke="black" points="1600.5,-270.99 1604,-280.99 1607.5,-270.99 1600.5,-270.99"/>
</g>
<!-- ZooRedirectorService -->
<g id="node6" class="node">
<title>ZooRedirectorService</title>
<ellipse fill="#fdb462" stroke="black" cx="1294" cy="-104" rx="96.11" ry="18"/>
<text text-anchor="middle" x="1294" y="-99.8" font-family="Times,serif" font-size="14.00">ZooRedirectorService</text>
</g>
<!-- ZooRedirectorService&#45;&gt;ZooComponent -->
<g id="edge3" class="edge">
<title>ZooRedirectorService&#45;&gt;ZooComponent</title>
<path fill="none" stroke="black" d="M1208.82,-112.5C1208.82,-112.5 1208.82,-140.91 1208.82,-140.91"/>
<polygon fill="black" stroke="black" points="1205.32,-140.91 1208.82,-150.91 1212.32,-140.91 1205.32,-140.91"/>
</g>
<!-- GiasDropDownTemplateService -->
<g id="node7" class="node">
<title>GiasDropDownTemplateService</title>
<ellipse fill="#fdb462" stroke="black" cx="1042" cy="-104" rx="137.7" ry="18"/>
<text text-anchor="middle" x="1042" y="-99.8" font-family="Times,serif" font-size="14.00">GiasDropDownTemplateService</text>
</g>
<!-- GiasDropDownTemplateService&#45;&gt;ZooComponent -->
<g id="edge4" class="edge">
<title>GiasDropDownTemplateService&#45;&gt;ZooComponent</title>
<path fill="none" stroke="black" d="M1147.83,-115.62C1147.83,-115.62 1147.83,-140.85 1147.83,-140.85"/>
<polygon fill="black" stroke="black" points="1144.33,-140.85 1147.83,-150.85 1151.33,-140.85 1144.33,-140.85"/>
</g>
<!-- GiasMultiSelectTemplateService -->
<g id="node8" class="node">
<title>GiasMultiSelectTemplateService</title>
<ellipse fill="#fdb462" stroke="black" cx="747" cy="-104" rx="139.43" ry="18"/>
<text text-anchor="middle" x="747" y="-99.8" font-family="Times,serif" font-size="14.00">GiasMultiSelectTemplateService</text>
</g>
<!-- GiasMultiSelectTemplateService&#45;&gt;ZooComponent -->
<g id="edge5" class="edge">
<title>GiasMultiSelectTemplateService&#45;&gt;ZooComponent</title>
<path fill="none" stroke="black" d="M747,-122.11C747,-141.34 747,-169 747,-169 747,-169 1105.95,-169 1105.95,-169"/>
<polygon fill="black" stroke="black" points="1105.95,-172.5 1115.95,-169 1105.95,-165.5 1105.95,-172.5"/>
</g>
<!-- IndicazioniComponent -->
<g id="node9" class="node">
<title>IndicazioniComponent</title>
<polygon fill="#8dd3c7" stroke="black" points="2479.31,-187 2476.31,-191 2455.31,-191 2452.31,-187 2334.69,-187 2334.69,-151 2479.31,-151 2479.31,-187"/>
<text text-anchor="middle" x="2407" y="-164.8" font-family="Times,serif" font-size="14.00">IndicazioniComponent</text>
</g>
<!-- IndicazioniComponent&#45;&gt;ZooModule -->
<g id="edge8" class="edge">
<title>IndicazioniComponent&#45;&gt;ZooModule</title>
<path fill="none" stroke="black" d="M2407,-187.25C2407,-210.02 2407,-246 2407,-246 2407,-246 1655.2,-246 1655.2,-246"/>
<polygon fill="black" stroke="black" points="1655.2,-242.5 1645.2,-246 1655.2,-249.5 1655.2,-242.5"/>
</g>
<!-- MenuAgendaModule -->
<g id="node10" class="node">
<title>MenuAgendaModule</title>
<polygon fill="#8dd3c7" stroke="black" points="2316.75,-187 2313.75,-191 2292.75,-191 2289.75,-187 2181.25,-187 2181.25,-151 2316.75,-151 2316.75,-187"/>
<text text-anchor="middle" x="2249" y="-164.8" font-family="Times,serif" font-size="14.00">MenuAgendaModule</text>
</g>
<!-- MenuAgendaModule&#45;&gt;ZooModule -->
<g id="edge9" class="edge">
<title>MenuAgendaModule&#45;&gt;ZooModule</title>
<path fill="none" stroke="black" d="M2249,-187.28C2249,-208.32 2249,-240 2249,-240 2249,-240 1655.33,-240 1655.33,-240"/>
<polygon fill="black" stroke="black" points="1655.33,-236.5 1645.33,-240 1655.33,-243.5 1655.33,-236.5"/>
</g>
<!-- ProtocolliComponent -->
<g id="node11" class="node">
<title>ProtocolliComponent</title>
<polygon fill="#8dd3c7" stroke="black" points="2163.05,-187 2160.05,-191 2139.05,-191 2136.05,-187 2026.95,-187 2026.95,-151 2163.05,-151 2163.05,-187"/>
<text text-anchor="middle" x="2095" y="-164.8" font-family="Times,serif" font-size="14.00">ProtocolliComponent</text>
</g>
<!-- ProtocolliComponent&#45;&gt;ZooModule -->
<g id="edge10" class="edge">
<title>ProtocolliComponent&#45;&gt;ZooModule</title>
<path fill="none" stroke="black" d="M2095,-187.11C2095,-206.34 2095,-234 2095,-234 2095,-234 1655.44,-234 1655.44,-234"/>
<polygon fill="black" stroke="black" points="1655.44,-230.5 1645.44,-234 1655.44,-237.5 1655.44,-230.5"/>
</g>
<!-- ProtocolliInCorsoComponent -->
<g id="node12" class="node">
<title>ProtocolliInCorsoComponent</title>
<polygon fill="#8dd3c7" stroke="black" points="2008.66,-187 2005.66,-191 1984.66,-191 1981.66,-187 1827.34,-187 1827.34,-151 2008.66,-151 2008.66,-187"/>
<text text-anchor="middle" x="1918" y="-164.8" font-family="Times,serif" font-size="14.00">ProtocolliInCorsoComponent</text>
</g>
<!-- ProtocolliInCorsoComponent&#45;&gt;ZooModule -->
<g id="edge11" class="edge">
<title>ProtocolliInCorsoComponent&#45;&gt;ZooModule</title>
<path fill="none" stroke="black" d="M1918,-187.02C1918,-204.37 1918,-228 1918,-228 1918,-228 1655.37,-228 1655.37,-228"/>
<polygon fill="black" stroke="black" points="1655.37,-224.5 1645.37,-228 1655.37,-231.5 1655.37,-224.5"/>
</g>
<!-- TranslocoRootModule -->
<g id="node13" class="node">
<title>TranslocoRootModule</title>
<polygon fill="#8dd3c7" stroke="black" points="1809.25,-187 1806.25,-191 1785.25,-191 1782.25,-187 1666.75,-187 1666.75,-151 1809.25,-151 1809.25,-187"/>
<text text-anchor="middle" x="1738" y="-164.8" font-family="Times,serif" font-size="14.00">TranslocoRootModule</text>
</g>
<!-- TranslocoRootModule&#45;&gt;ZooModule -->
<g id="edge12" class="edge">
<title>TranslocoRootModule&#45;&gt;ZooModule</title>
<path fill="none" stroke="black" d="M1738,-187.24C1738,-202.57 1738,-222 1738,-222 1738,-222 1655.3,-222 1655.3,-222"/>
<polygon fill="black" stroke="black" points="1655.3,-218.5 1645.3,-222 1655.3,-225.5 1655.3,-218.5"/>
</g>
<!-- UikitModule -->
<g id="node14" class="node">
<title>UikitModule</title>
<polygon fill="#8dd3c7" stroke="black" points="1648.33,-187 1645.33,-191 1624.33,-191 1621.33,-187 1559.67,-187 1559.67,-151 1648.33,-151 1648.33,-187"/>
<text text-anchor="middle" x="1604" y="-164.8" font-family="Times,serif" font-size="14.00">UikitModule</text>
</g>
<!-- UikitModule&#45;&gt;ZooModule -->
<g id="edge13" class="edge">
<title>UikitModule&#45;&gt;ZooModule</title>
<path fill="none" stroke="black" d="M1604,-187.11C1604,-187.11 1604,-205.99 1604,-205.99"/>
<polygon fill="black" stroke="black" points="1600.5,-205.99 1604,-215.99 1607.5,-205.99 1600.5,-205.99"/>
</g>
<!-- ZooRoutingModule -->
<g id="node15" class="node">
<title>ZooRoutingModule</title>
<polygon fill="#8dd3c7" stroke="black" points="1541.72,-187 1538.72,-191 1517.72,-191 1514.72,-187 1414.28,-187 1414.28,-151 1541.72,-151 1541.72,-187"/>
<text text-anchor="middle" x="1478" y="-164.8" font-family="Times,serif" font-size="14.00">ZooRoutingModule</text>
</g>
<!-- ZooRoutingModule&#45;&gt;ZooModule -->
<g id="edge14" class="edge">
<title>ZooRoutingModule&#45;&gt;ZooModule</title>
<path fill="none" stroke="black" d="M1478,-187.24C1478,-202.57 1478,-222 1478,-222 1478,-222 1552.74,-222 1552.74,-222"/>
<polygon fill="black" stroke="black" points="1552.74,-225.5 1562.74,-222 1552.74,-218.5 1552.74,-225.5"/>
</g>
</g>
</svg>
