<?xml version="1.0" encoding="UTF-8" standalone="no"?>
<!DOCTYPE svg PUBLIC "-//W3C//DTD SVG 1.1//EN"
 "http://www.w3.org/Graphics/SVG/1.1/DTD/svg11.dtd">
<!-- Generated by graphviz version 2.47.0 (20210316.0004)
 -->
<!-- Title: dependencies Pages: 1 -->
<svg width="845pt" height="276pt"
 viewBox="0.00 0.00 845.00 276.00" xmlns="http://www.w3.org/2000/svg" xmlns:xlink="http://www.w3.org/1999/xlink">
<g id="graph0" class="graph" transform="scale(1 1) rotate(0) translate(4 272)">
<title>dependencies</title>
<polygon fill="white" stroke="transparent" points="-4,4 -4,-272 841,-272 841,4 -4,4"/>
<text text-anchor="start" x="397.51" y="-42.4" font-family="Times-12" font-weight="bold" font-size="14.00">Legend</text>
<polygon fill="#ffffb3" stroke="transparent" points="184.5,-10 184.5,-30 204.5,-30 204.5,-10 184.5,-10"/>
<text text-anchor="start" x="208.13" y="-15.4" font-family="Times-12" font-size="14.00"> &#160;Declarations</text>
<polygon fill="#8dd3c7" stroke="transparent" points="297.5,-10 297.5,-30 317.5,-30 317.5,-10 297.5,-10"/>
<text text-anchor="start" x="321.23" y="-15.4" font-family="Times-12" font-size="14.00"> &#160;Module</text>
<polygon fill="#80b1d3" stroke="transparent" points="383.5,-10 383.5,-30 403.5,-30 403.5,-10 383.5,-10"/>
<text text-anchor="start" x="407.28" y="-15.4" font-family="Times-12" font-size="14.00"> &#160;Bootstrap</text>
<polygon fill="#fdb462" stroke="transparent" points="480.5,-10 480.5,-30 500.5,-30 500.5,-10 480.5,-10"/>
<text text-anchor="start" x="504.17" y="-15.4" font-family="Times-12" font-size="14.00"> &#160;Providers</text>
<polygon fill="#fb8072" stroke="transparent" points="576.5,-10 576.5,-30 596.5,-30 596.5,-10 576.5,-10"/>
<text text-anchor="start" x="600.23" y="-15.4" font-family="Times-12" font-size="14.00"> &#160;Exports</text>
<g id="clust1" class="cluster">
<title>cluster_PianoContiModule</title>
<polygon fill="none" stroke="black" stroke-dasharray="1,5" points="8,-70 8,-260 829,-260 829,-70 8,-70"/>
</g>
<g id="clust5" class="cluster">
<title>cluster_PianoContiModule_imports</title>
<polygon fill="none" stroke="black" points="370,-143 370,-195 821,-195 821,-143 370,-143"/>
</g>
<g id="clust2" class="cluster">
<title>cluster_PianoContiModule_declarations</title>
<polygon fill="none" stroke="black" points="16,-143 16,-195 362,-195 362,-143 16,-143"/>
</g>
<g id="clust3" class="cluster">
<title>cluster_PianoContiModule_PianoContiComponent_providers</title>
<polygon fill="none" stroke="black" points="16,-78 16,-130 622,-130 622,-78 16,-78"/>
</g>
<!-- PianoContiComponent -->
<g id="node1" class="node">
<title>PianoContiComponent</title>
<polygon fill="#ffffb3" stroke="black" points="354.34,-187 209.66,-187 209.66,-151 354.34,-151 354.34,-187"/>
<text text-anchor="middle" x="282" y="-164.8" font-family="Times,serif" font-size="14.00">PianoContiComponent</text>
</g>
<!-- PianoContiModule -->
<g id="node3" class="node">
<title>PianoContiModule</title>
<polygon fill="#8dd3c7" stroke="black" points="483.06,-252 480.06,-256 459.06,-256 456.06,-252 360.94,-252 360.94,-216 483.06,-216 483.06,-252"/>
<text text-anchor="middle" x="422" y="-229.8" font-family="Times,serif" font-size="14.00">PianoContiModule</text>
</g>
<!-- PianoContiComponent&#45;&gt;PianoContiModule -->
<g id="edge1" class="edge">
<title>PianoContiComponent&#45;&gt;PianoContiModule</title>
<path fill="none" stroke="black" d="M354.47,-169C363.3,-169 369.28,-169 369.28,-169 369.28,-169 369.28,-205.89 369.28,-205.89"/>
<polygon fill="black" stroke="black" points="365.78,-205.89 369.28,-215.89 372.78,-205.89 365.78,-205.89"/>
</g>
<!-- PianoContiEditComponent -->
<g id="node2" class="node">
<title>PianoContiEditComponent</title>
<polygon fill="#ffffb3" stroke="black" points="191.67,-187 24.33,-187 24.33,-151 191.67,-151 191.67,-187"/>
<text text-anchor="middle" x="108" y="-164.8" font-family="Times,serif" font-size="14.00">PianoContiEditComponent</text>
</g>
<!-- PianoContiEditComponent&#45;&gt;PianoContiModule -->
<g id="edge3" class="edge">
<title>PianoContiEditComponent&#45;&gt;PianoContiModule</title>
<path fill="none" stroke="black" d="M108,-187.11C108,-206.34 108,-234 108,-234 108,-234 350.71,-234 350.71,-234"/>
<polygon fill="black" stroke="black" points="350.71,-237.5 360.71,-234 350.71,-230.5 350.71,-237.5"/>
</g>
<!-- ...generateGridProviders(PianoContiHttpService, PianoContiComponent) -->
<g id="node4" class="node">
<title>...generateGridProviders(PianoContiHttpService, PianoContiComponent)</title>
<ellipse fill="#fdb462" stroke="black" cx="319" cy="-104" rx="295.11" ry="18"/>
<text text-anchor="middle" x="319" y="-99.8" font-family="Times,serif" font-size="14.00">...generateGridProviders(PianoContiHttpService, PianoContiComponent)</text>
</g>
<!-- ...generateGridProviders(PianoContiHttpService, PianoContiComponent)&#45;&gt;PianoContiComponent -->
<g id="edge2" class="edge">
<title>...generateGridProviders(PianoContiHttpService, PianoContiComponent)&#45;&gt;PianoContiComponent</title>
<path fill="none" stroke="black" d="M282,-122.11C282,-122.11 282,-140.99 282,-140.99"/>
<polygon fill="black" stroke="black" points="278.5,-140.99 282,-150.99 285.5,-140.99 278.5,-140.99"/>
</g>
<!-- PianoContiRoutingModule -->
<g id="node5" class="node">
<title>PianoContiRoutingModule</title>
<polygon fill="#8dd3c7" stroke="black" points="812.67,-187 809.67,-191 788.67,-191 785.67,-187 645.33,-187 645.33,-151 812.67,-151 812.67,-187"/>
<text text-anchor="middle" x="729" y="-164.8" font-family="Times,serif" font-size="14.00">PianoContiRoutingModule</text>
</g>
<!-- PianoContiRoutingModule&#45;&gt;PianoContiModule -->
<g id="edge4" class="edge">
<title>PianoContiRoutingModule&#45;&gt;PianoContiModule</title>
<path fill="none" stroke="black" d="M729,-187.11C729,-206.34 729,-234 729,-234 729,-234 493.39,-234 493.39,-234"/>
<polygon fill="black" stroke="black" points="493.39,-230.5 483.39,-234 493.39,-237.5 493.39,-230.5"/>
</g>
<!-- TranslocoRootModule -->
<g id="node6" class="node">
<title>TranslocoRootModule</title>
<polygon fill="#8dd3c7" stroke="black" points="627.25,-187 624.25,-191 603.25,-191 600.25,-187 484.75,-187 484.75,-151 627.25,-151 627.25,-187"/>
<text text-anchor="middle" x="556" y="-164.8" font-family="Times,serif" font-size="14.00">TranslocoRootModule</text>
</g>
<!-- TranslocoRootModule&#45;&gt;PianoContiModule -->
<g id="edge5" class="edge">
<title>TranslocoRootModule&#45;&gt;PianoContiModule</title>
<path fill="none" stroke="black" d="M484.69,-169C478.61,-169 474.72,-169 474.72,-169 474.72,-169 474.72,-205.89 474.72,-205.89"/>
<polygon fill="black" stroke="black" points="471.22,-205.89 474.72,-215.89 478.22,-205.89 471.22,-205.89"/>
</g>
<!-- UikitModule -->
<g id="node7" class="node">
<title>UikitModule</title>
<polygon fill="#8dd3c7" stroke="black" points="466.33,-187 463.33,-191 442.33,-191 439.33,-187 377.67,-187 377.67,-151 466.33,-151 466.33,-187"/>
<text text-anchor="middle" x="422" y="-164.8" font-family="Times,serif" font-size="14.00">UikitModule</text>
</g>
<!-- UikitModule&#45;&gt;PianoContiModule -->
<g id="edge6" class="edge">
<title>UikitModule&#45;&gt;PianoContiModule</title>
<path fill="none" stroke="black" d="M422,-187.11C422,-187.11 422,-205.99 422,-205.99"/>
<polygon fill="black" stroke="black" points="418.5,-205.99 422,-215.99 425.5,-205.99 418.5,-205.99"/>
</g>
</g>
</svg>
