<?xml version="1.0" encoding="UTF-8" standalone="no"?>
<!DOCTYPE svg PUBLIC "-//W3C//DTD SVG 1.1//EN"
 "http://www.w3.org/Graphics/SVG/1.1/DTD/svg11.dtd">
<!-- Generated by graphviz version 2.47.0 (20210316.0004)
 -->
<!-- Title: dependencies Pages: 1 -->
<svg width="1009pt" height="284pt"
 viewBox="0.00 0.00 1009.00 284.00" xmlns="http://www.w3.org/2000/svg" xmlns:xlink="http://www.w3.org/1999/xlink">
<g id="graph0" class="graph" transform="scale(1 1) rotate(0) translate(4 280)">
<title>dependencies</title>
<polygon fill="white" stroke="transparent" points="-4,4 -4,-280 1005,-280 1005,4 -4,4"/>
<text text-anchor="start" x="479.51" y="-42.4" font-family="Times-12" font-weight="bold" font-size="14.00">Legend</text>
<polygon fill="#ffffb3" stroke="transparent" points="266.5,-10 266.5,-30 286.5,-30 286.5,-10 266.5,-10"/>
<text text-anchor="start" x="290.13" y="-15.4" font-family="Times-12" font-size="14.00"> &#160;Declarations</text>
<polygon fill="#8dd3c7" stroke="transparent" points="379.5,-10 379.5,-30 399.5,-30 399.5,-10 379.5,-10"/>
<text text-anchor="start" x="403.23" y="-15.4" font-family="Times-12" font-size="14.00"> &#160;Module</text>
<polygon fill="#80b1d3" stroke="transparent" points="465.5,-10 465.5,-30 485.5,-30 485.5,-10 465.5,-10"/>
<text text-anchor="start" x="489.28" y="-15.4" font-family="Times-12" font-size="14.00"> &#160;Bootstrap</text>
<polygon fill="#fdb462" stroke="transparent" points="562.5,-10 562.5,-30 582.5,-30 582.5,-10 562.5,-10"/>
<text text-anchor="start" x="586.17" y="-15.4" font-family="Times-12" font-size="14.00"> &#160;Providers</text>
<polygon fill="#fb8072" stroke="transparent" points="658.5,-10 658.5,-30 678.5,-30 678.5,-10 658.5,-10"/>
<text text-anchor="start" x="682.23" y="-15.4" font-family="Times-12" font-size="14.00"> &#160;Exports</text>
<g id="clust1" class="cluster">
<title>cluster_ValutazioniMainComponentModule</title>
<polygon fill="none" stroke="black" stroke-dasharray="1,5" points="8,-70 8,-268 993,-268 993,-70 8,-70"/>
</g>
<g id="clust4" class="cluster">
<title>cluster_ValutazioniMainComponentModule_imports</title>
<polygon fill="none" stroke="black" points="282,-78 282,-130 985,-130 985,-78 282,-78"/>
</g>
<g id="clust5" class="cluster">
<title>cluster_ValutazioniMainComponentModule_exports</title>
<polygon fill="none" stroke="black" points="413,-208 413,-260 675,-260 675,-208 413,-208"/>
</g>
<g id="clust2" class="cluster">
<title>cluster_ValutazioniMainComponentModule_declarations</title>
<polygon fill="none" stroke="black" points="16,-78 16,-130 274,-130 274,-78 16,-78"/>
</g>
<!-- ValutazioniMainComponentComponent -->
<g id="node1" class="node">
<title>ValutazioniMainComponentComponent</title>
<polygon fill="#ffffb3" stroke="black" points="265.53,-122 24.47,-122 24.47,-86 265.53,-86 265.53,-122"/>
<text text-anchor="middle" x="145" y="-99.8" font-family="Times,serif" font-size="14.00">ValutazioniMainComponentComponent</text>
</g>
<!-- ValutazioniMainComponentModule -->
<g id="node2" class="node">
<title>ValutazioniMainComponentModule</title>
<polygon fill="#8dd3c7" stroke="black" points="653.74,-187 650.74,-191 629.74,-191 626.74,-187 434.26,-187 434.26,-151 653.74,-151 653.74,-187"/>
<text text-anchor="middle" x="544" y="-164.8" font-family="Times,serif" font-size="14.00">ValutazioniMainComponentModule</text>
</g>
<!-- ValutazioniMainComponentComponent&#45;&gt;ValutazioniMainComponentModule -->
<g id="edge1" class="edge">
<title>ValutazioniMainComponentComponent&#45;&gt;ValutazioniMainComponentModule</title>
<path fill="none" stroke="black" d="M145,-122.28C145,-143.32 145,-175 145,-175 145,-175 424.18,-175 424.18,-175"/>
<polygon fill="black" stroke="black" points="424.18,-178.5 434.18,-175 424.18,-171.5 424.18,-178.5"/>
</g>
<!-- ValutazioniMainComponentComponent  -->
<g id="node8" class="node">
<title>ValutazioniMainComponentComponent </title>
<polygon fill="#fb8072" stroke="black" points="666.53,-252 421.47,-252 421.47,-216 666.53,-216 666.53,-252"/>
<text text-anchor="middle" x="544" y="-229.8" font-family="Times,serif" font-size="14.00">ValutazioniMainComponentComponent </text>
</g>
<!-- ValutazioniMainComponentModule&#45;&gt;ValutazioniMainComponentComponent  -->
<g id="edge7" class="edge">
<title>ValutazioniMainComponentModule&#45;&gt;ValutazioniMainComponentComponent </title>
<path fill="none" stroke="black" stroke-dasharray="5,2" d="M544,-187.11C544,-187.11 544,-205.99 544,-205.99"/>
<polygon fill="black" stroke="black" points="540.5,-205.99 544,-215.99 547.5,-205.99 540.5,-205.99"/>
</g>
<!-- MenuAgendaModule -->
<g id="node3" class="node">
<title>MenuAgendaModule</title>
<polygon fill="#8dd3c7" stroke="black" points="976.75,-122 973.75,-126 952.75,-126 949.75,-122 841.25,-122 841.25,-86 976.75,-86 976.75,-122"/>
<text text-anchor="middle" x="909" y="-99.8" font-family="Times,serif" font-size="14.00">MenuAgendaModule</text>
</g>
<!-- MenuAgendaModule&#45;&gt;ValutazioniMainComponentModule -->
<g id="edge2" class="edge">
<title>MenuAgendaModule&#45;&gt;ValutazioniMainComponentModule</title>
<path fill="none" stroke="black" d="M909,-122.28C909,-143.32 909,-175 909,-175 909,-175 664.01,-175 664.01,-175"/>
<polygon fill="black" stroke="black" points="664.01,-171.5 654.01,-175 664.01,-178.5 664.01,-171.5"/>
</g>
<!-- PianoContiModule -->
<g id="node4" class="node">
<title>PianoContiModule</title>
<polygon fill="#8dd3c7" stroke="black" points="823.06,-122 820.06,-126 799.06,-126 796.06,-122 700.94,-122 700.94,-86 823.06,-86 823.06,-122"/>
<text text-anchor="middle" x="762" y="-99.8" font-family="Times,serif" font-size="14.00">PianoContiModule</text>
</g>
<!-- PianoContiModule&#45;&gt;ValutazioniMainComponentModule -->
<g id="edge3" class="edge">
<title>PianoContiModule&#45;&gt;ValutazioniMainComponentModule</title>
<path fill="none" stroke="black" d="M762,-122.02C762,-139.37 762,-163 762,-163 762,-163 663.96,-163 663.96,-163"/>
<polygon fill="black" stroke="black" points="663.96,-159.5 653.96,-163 663.96,-166.5 663.96,-159.5"/>
</g>
<!-- TranslocoRootModule -->
<g id="node5" class="node">
<title>TranslocoRootModule</title>
<polygon fill="#8dd3c7" stroke="black" points="682.25,-122 679.25,-126 658.25,-126 655.25,-122 539.75,-122 539.75,-86 682.25,-86 682.25,-122"/>
<text text-anchor="middle" x="611" y="-99.8" font-family="Times,serif" font-size="14.00">TranslocoRootModule</text>
</g>
<!-- TranslocoRootModule&#45;&gt;ValutazioniMainComponentModule -->
<g id="edge4" class="edge">
<title>TranslocoRootModule&#45;&gt;ValutazioniMainComponentModule</title>
<path fill="none" stroke="black" d="M596.75,-122.11C596.75,-122.11 596.75,-140.99 596.75,-140.99"/>
<polygon fill="black" stroke="black" points="593.25,-140.99 596.75,-150.99 600.25,-140.99 593.25,-140.99"/>
</g>
<!-- UikitModule -->
<g id="node6" class="node">
<title>UikitModule</title>
<polygon fill="#8dd3c7" stroke="black" points="521.33,-122 518.33,-126 497.33,-126 494.33,-122 432.67,-122 432.67,-86 521.33,-86 521.33,-122"/>
<text text-anchor="middle" x="477" y="-99.8" font-family="Times,serif" font-size="14.00">UikitModule</text>
</g>
<!-- UikitModule&#45;&gt;ValutazioniMainComponentModule -->
<g id="edge5" class="edge">
<title>UikitModule&#45;&gt;ValutazioniMainComponentModule</title>
<path fill="none" stroke="black" d="M477.65,-122.11C477.65,-122.11 477.65,-140.99 477.65,-140.99"/>
<polygon fill="black" stroke="black" points="474.15,-140.99 477.65,-150.99 481.15,-140.99 474.15,-140.99"/>
</g>
<!-- ValutazioniModule -->
<g id="node7" class="node">
<title>ValutazioniModule</title>
<polygon fill="#8dd3c7" stroke="black" points="414.36,-122 411.36,-126 390.36,-126 387.36,-122 289.64,-122 289.64,-86 414.36,-86 414.36,-122"/>
<text text-anchor="middle" x="352" y="-99.8" font-family="Times,serif" font-size="14.00">ValutazioniModule</text>
</g>
<!-- ValutazioniModule&#45;&gt;ValutazioniMainComponentModule -->
<g id="edge6" class="edge">
<title>ValutazioniModule&#45;&gt;ValutazioniMainComponentModule</title>
<path fill="none" stroke="black" d="M352,-122.02C352,-139.37 352,-163 352,-163 352,-163 423.98,-163 423.98,-163"/>
<polygon fill="black" stroke="black" points="423.98,-166.5 433.98,-163 423.98,-159.5 423.98,-166.5"/>
</g>
</g>
</svg>
